<svg width="94" height="94" viewBox="0 0 94 94" fill="none" xmlns="http://www.w3.org/2000/svg">
<g filter="url(#filter0_d)">
<circle cx="47" cy="47" r="29" fill="#FD435A"/>
</g>
<path d="M37.6651 38.8629C37.6651 38.1686 38.1853 37.6484 38.8796 37.6484H42.2816C42.9746 37.6484 43.4961 38.1686 43.4961 38.8629V42.2649C43.4961 42.9579 42.9746 43.4794 42.2816 43.4794H38.8796C38.1853 43.4794 37.6651 42.9579 37.6651 42.2649V38.8629ZM38.8796 45.8126H42.2816C44.2263 45.8126 45.8293 44.2096 45.8293 42.2649V38.8629C45.8293 36.9169 44.2263 35.3139 42.2816 35.3139H38.8796C36.9336 35.3139 35.3306 36.9169 35.3306 38.8629V42.2649C35.3306 44.2096 36.9336 45.8126 38.8796 45.8126Z" fill="white"/>
<path d="M37.6651 51.6957C37.6651 51.0009 38.1853 50.4812 38.8796 50.4812H42.2816C42.9746 50.4812 43.4961 51.0009 43.4961 51.6957V55.0973C43.4961 55.7903 42.9746 56.3122 42.2816 56.3122H38.8796C38.1853 56.3122 37.6651 55.7903 37.6651 55.0973V51.6957ZM38.8796 58.6454H42.2816C44.2263 58.6454 45.8293 57.0424 45.8293 55.0973V51.6957C45.8293 49.7497 44.2263 48.1476 42.2816 48.1476H38.8796C36.9336 48.1476 35.3306 49.7497 35.3306 51.6957V55.0973C35.3306 57.0424 36.9336 58.6454 38.8796 58.6454Z" fill="white"/>
<path d="M56.3282 42.2649C56.3282 42.9579 55.8067 43.4794 55.1137 43.4794H51.7117C51.0174 43.4794 50.4972 42.9579 50.4972 42.2649V38.8629C50.4972 38.1686 51.0174 37.6484 51.7117 37.6484H55.1137C55.8067 37.6484 56.3282 38.1686 56.3282 38.8629V42.2649ZM58.6614 38.8629C58.6614 36.9169 57.0584 35.3139 55.1137 35.3139H51.7117C49.7653 35.3139 48.1636 36.9169 48.1636 38.8629V42.2649C48.1636 44.2096 49.7653 45.8126 51.7117 45.8126H55.1137C57.0584 45.8126 58.6614 44.2096 58.6614 42.2649V38.8629Z" fill="white"/>
<path d="M56.3282 55.0972C56.3282 55.7902 55.8067 56.3117 55.1137 56.3117H51.7117C51.0174 56.3117 50.4972 55.7902 50.4972 55.0972V51.6957C50.4972 51.0009 51.0174 50.4808 51.7117 50.4808H55.1137C55.8067 50.4808 56.3282 51.0009 56.3282 51.6957V55.0972ZM58.6614 51.6957C58.6614 49.7493 57.0584 48.1471 55.1137 48.1471H51.7117C49.7653 48.1471 48.1636 49.7493 48.1636 51.6957V55.0972C48.1636 57.0419 49.7653 58.6449 51.7117 58.6449H55.1137C57.0584 58.6449 58.6614 57.0419 58.6614 55.0972V51.6957Z" fill="white"/>
<defs>
<filter id="filter0_d" x="0" y="0" width="94" height="94" filterUnits="userSpaceOnUse" color-interpolation-filters="sRGB">
<feFlood flood-opacity="0" result="BackgroundImageFix"/>
<feColorMatrix in="SourceAlpha" type="matrix" values="0 0 0 0 0 0 0 0 0 0 0 0 0 0 0 0 0 0 127 0"/>
<feMorphology radius="1" operator="dilate" in="SourceAlpha" result="effect1_dropShadow"/>
<feOffset/>
<feGaussianBlur stdDeviation="8.5"/>
<feColorMatrix type="matrix" values="0 0 0 0 1 0 0 0 0 0.196536 0 0 0 0 0.41785 0 0 0 0.34 0"/>
<feBlend mode="normal" in2="BackgroundImageFix" result="effect1_dropShadow"/>
<feBlend mode="normal" in="SourceGraphic" in2="effect1_dropShadow" result="shape"/>
</filter>
</defs>
</svg>
