<svg width="94" height="94" viewBox="0 0 94 94" fill="none" xmlns="http://www.w3.org/2000/svg">
<g filter="url(#filter0_d)">
<circle cx="47" cy="47" r="29" fill="#FD435A"/>
</g>
<path d="M55.2581 46.5979L55.036 46.7044C51.8179 48.3139 48.3139 51.8184 46.7044 55.036L46.5979 55.2581C45.9903 56.4738 45.4357 56.6936 45.2594 56.6868C45.0841 56.6782 44.5512 56.4222 44.0459 55.1602L37.7493 39.4087C37.4956 38.7738 37.4108 38.2727 37.4194 37.9632C37.4281 37.6542 37.4956 37.5744 37.5354 37.5354C37.574 37.4956 37.6537 37.4281 37.9632 37.4194C38.2727 37.4113 38.7743 37.4956 39.4082 37.7498L55.1602 44.0459C56.4217 44.5512 56.6782 45.0841 56.6863 45.2594C56.6936 45.4357 56.4738 45.9903 55.2581 46.5979ZM56.0519 41.7984L40.3086 35.5023C39.4553 35.1602 38.6542 34.9812 37.8921 35.0016C37.1294 35.0233 36.3682 35.2762 35.8222 35.8222C35.2757 36.3682 35.0233 37.1294 35.0016 37.8921C34.9812 38.6547 35.1602 39.4553 35.5018 40.3086L41.7984 56.0519C42.4849 57.7679 43.6182 59.0389 45.1615 59.1033C46.7053 59.1672 47.9297 57.9986 48.7562 56.3469L48.8722 56.1149C50.1301 53.5978 53.5978 50.1301 56.1149 48.8722L56.3469 48.7562C57.9986 47.9297 59.1672 46.7053 59.1028 45.1615C59.0389 43.6182 57.7679 42.4849 56.0519 41.7984" fill="white"/>
<defs>
<filter id="filter0_d" x="0" y="0" width="94" height="94" filterUnits="userSpaceOnUse" color-interpolation-filters="sRGB">
<feFlood flood-opacity="0" result="BackgroundImageFix"/>
<feColorMatrix in="SourceAlpha" type="matrix" values="0 0 0 0 0 0 0 0 0 0 0 0 0 0 0 0 0 0 127 0"/>
<feMorphology radius="1" operator="dilate" in="SourceAlpha" result="effect1_dropShadow"/>
<feOffset/>
<feGaussianBlur stdDeviation="8.5"/>
<feColorMatrix type="matrix" values="0 0 0 0 1 0 0 0 0 0.196536 0 0 0 0 0.41785 0 0 0 0.34 0"/>
<feBlend mode="normal" in2="BackgroundImageFix" result="effect1_dropShadow"/>
<feBlend mode="normal" in="SourceGraphic" in2="effect1_dropShadow" result="shape"/>
</filter>
</defs>
</svg>
