<svg id="Layer_1" data-name="Layer 1" xmlns="http://www.w3.org/2000/svg" xmlns:xlink="http://www.w3.org/1999/xlink" viewBox="0 0 1566.83 1141.01"><defs><style>.cls-1{fill:url(#linear-gradient);}.cls-17,.cls-2{fill:#1d2251;}.cls-3{fill:#61ccf2;}.cls-4{fill:#3faecc;}.cls-13,.cls-5{fill:#214184;}.cls-5{opacity:0.3;}.cls-18,.cls-6{fill:#cbebf3;}.cls-7{fill:#6981c0;}.cls-8{fill:#8196cc;}.cls-9{fill:#3b52a2;}.cls-10,.cls-16{fill:#224698;}.cls-11{fill:#4763ac;}.cls-12{fill:#5079bc;}.cls-14{fill:#24499b;}.cls-15{fill:#5977b2;}.cls-16{opacity:0.38;}.cls-17{opacity:0.72;}.cls-18{opacity:0.66;}.cls-19{fill:#3858a7;}.cls-20{fill:#fffef5;}.cls-21{fill:#cdc9bd;}.cls-22{fill:#e9e6db;}.cls-23,.cls-62{fill:#fff;}.cls-24{fill:#f5f0e4;}.cls-25{fill:#5d3b7f;}.cls-26{fill:#f28082;}.cls-27{fill:url(#linear-gradient-2);}.cls-28{fill:url(#linear-gradient-3);}.cls-29{fill:url(#linear-gradient-4);}.cls-30{fill:#4298ac;opacity:0.4;}.cls-31{opacity:0.14;fill:url(#linear-gradient-5);}.cls-32,.cls-40{opacity:0.24;}.cls-32{fill:url(#linear-gradient-6);}.cls-33{fill:url(#linear-gradient-7);}.cls-34{fill:url(#linear-gradient-8);}.cls-35{fill:url(#linear-gradient-9);}.cls-36,.cls-39,.cls-85{opacity:0.43;}.cls-36{fill:url(#linear-gradient-10);}.cls-37,.cls-38,.cls-39{fill:#131735;}.cls-38{opacity:0.64;}.cls-40{fill:url(#linear-gradient-11);}.cls-41{fill:url(#linear-gradient-12);}.cls-42{fill:url(#linear-gradient-13);}.cls-43{fill:url(#linear-gradient-14);}.cls-44{fill:url(#linear-gradient-15);}.cls-45{fill:url(#linear-gradient-16);}.cls-46{fill:#1d224c;}.cls-47{opacity:0.2;fill:url(#linear-gradient-17);}.cls-48,.cls-49,.cls-50,.cls-51,.cls-52{opacity:0.21;}.cls-48{fill:url(#linear-gradient-18);}.cls-49{fill:url(#linear-gradient-19);}.cls-50{fill:url(#linear-gradient-20);}.cls-51{fill:url(#linear-gradient-21);}.cls-52{fill:url(#linear-gradient-22);}.cls-53{fill:url(#linear-gradient-23);}.cls-54{fill:#ffc713;}.cls-55{fill:url(#linear-gradient-24);}.cls-56{fill:#fee091;}.cls-57{opacity:0.74;fill:url(#linear-gradient-25);}.cls-58{fill:url(#linear-gradient-26);}.cls-59{opacity:0.68;fill:url(#linear-gradient-27);}.cls-60,.cls-61{opacity:0.23;}.cls-60{fill:url(#linear-gradient-28);}.cls-61{fill:url(#linear-gradient-29);}.cls-62{opacity:0.25;}.cls-63{fill:url(#linear-gradient-30);}.cls-64{fill:url(#linear-gradient-31);}.cls-65{fill:url(#linear-gradient-32);}.cls-66{fill:url(#linear-gradient-33);}.cls-67{fill:url(#linear-gradient-34);}.cls-68{fill:url(#linear-gradient-35);}.cls-69{fill:url(#linear-gradient-36);}.cls-70{fill:url(#linear-gradient-37);}.cls-71{fill:url(#linear-gradient-38);}.cls-72{fill:url(#linear-gradient-39);}.cls-73{fill:url(#linear-gradient-40);}.cls-74{fill:url(#linear-gradient-41);}.cls-75{fill:url(#linear-gradient-42);}.cls-76{fill:url(#linear-gradient-43);}.cls-77{fill:url(#linear-gradient-44);}.cls-78{fill:url(#linear-gradient-45);}.cls-79{fill:url(#linear-gradient-46);}.cls-80{fill:url(#linear-gradient-47);}.cls-81{fill:url(#linear-gradient-48);}.cls-82{fill:url(#linear-gradient-49);}.cls-83{fill:url(#linear-gradient-50);}.cls-84{opacity:0.8;}.cls-85{fill:url(#linear-gradient-51);}.cls-86{fill:url(#linear-gradient-52);}.cls-87{opacity:0.78;}</style><linearGradient id="linear-gradient" x1="840.1" y1="1167.39" x2="840.1" y2="143.5" gradientUnits="userSpaceOnUse"><stop offset="0" stop-color="#2d387e"/><stop offset="0.12" stop-color="#363a7f"/><stop offset="0.32" stop-color="#503f83"/><stop offset="0.52" stop-color="#6f4588"/><stop offset="0.58" stop-color="#854d8d"/><stop offset="0.7" stop-color="#bd639b"/><stop offset="0.78" stop-color="#eb74a6"/><stop offset="1" stop-color="#e3a1c0"/></linearGradient><linearGradient id="linear-gradient-2" x1="923.91" y1="715.24" x2="117.48" y2="715.24" gradientUnits="userSpaceOnUse"><stop offset="0.12" stop-color="#51b7db"/><stop offset="0.75" stop-color="#add6ea"/><stop offset="0.82" stop-color="#c4e0ef"/><stop offset="0.91" stop-color="#e4f0f7"/><stop offset="1" stop-color="#fff"/></linearGradient><linearGradient id="linear-gradient-3" x1="1052.18" y1="130.9" x2="1185.73" y2="130.9" gradientTransform="matrix(1, -0.03, 0.03, 1, -7.56, 37.1)" gradientUnits="userSpaceOnUse"><stop offset="0.1" stop-color="#ae1e47"/><stop offset="1" stop-color="#4c1025"/></linearGradient><linearGradient id="linear-gradient-4" x1="971.04" y1="130.25" x2="1090.79" y2="130.25" gradientTransform="matrix(1, -0.06, 0.06, 1, -13.22, 67.55)" xlink:href="#linear-gradient-3"/><linearGradient id="linear-gradient-5" x1="194.03" y1="841.82" x2="395.34" y2="841.82" gradientUnits="userSpaceOnUse"><stop offset="0.41" stop-color="#1d224c"/><stop offset="1" stop-color="#2c326e"/></linearGradient><linearGradient id="linear-gradient-6" x1="542.72" y1="649.41" x2="982.39" y2="649.41" gradientUnits="userSpaceOnUse"><stop offset="0.1" stop-color="#1d224c"/><stop offset="0.42" stop-color="#2c326e"/></linearGradient><linearGradient id="linear-gradient-7" x1="876.6" y1="270.74" x2="970.35" y2="108.36" gradientTransform="translate(-22.15 94.95) rotate(-5.44)" gradientUnits="userSpaceOnUse"><stop offset="0.63" stop-color="#131735"/><stop offset="1" stop-color="#2c326e"/></linearGradient><linearGradient id="linear-gradient-8" x1="947.73" y1="287.56" x2="1049.38" y2="111.52" xlink:href="#linear-gradient-7"/><linearGradient id="linear-gradient-9" x1="336.23" y1="439.67" x2="1432.6" y2="439.67" gradientUnits="userSpaceOnUse"><stop offset="0.24" stop-color="#1d224c"/><stop offset="0.73" stop-color="#2c326e"/></linearGradient><linearGradient id="linear-gradient-10" x1="464.55" y1="778.16" x2="478.63" y2="778.16" xlink:href="#linear-gradient-6"/><linearGradient id="linear-gradient-11" x1="221.44" y1="770.31" x2="361.92" y2="770.31" xlink:href="#linear-gradient-6"/><linearGradient id="linear-gradient-12" x1="404.06" y1="458.48" x2="1172.11" y2="458.48" gradientUnits="userSpaceOnUse"><stop offset="0" stop-color="#ffc713"/><stop offset="0.66" stop-color="#f78f20"/></linearGradient><linearGradient id="linear-gradient-13" x1="410.02" y1="460.87" x2="1172.11" y2="460.87" gradientUnits="userSpaceOnUse"><stop offset="0" stop-color="#934c21"/><stop offset="1" stop-color="#ffc713" stop-opacity="0"/></linearGradient><linearGradient id="linear-gradient-14" x1="16.97" y1="661.85" x2="430.54" y2="661.85" gradientUnits="userSpaceOnUse"><stop offset="0.12" stop-color="#51b7db"/><stop offset="0.62" stop-color="#add6ea"/><stop offset="0.82" stop-color="#c4e0ef"/><stop offset="0.91" stop-color="#e4f0f7"/><stop offset="1" stop-color="#fff"/></linearGradient><linearGradient id="linear-gradient-15" x1="217.5" y1="665.23" x2="331.33" y2="665.23" gradientUnits="userSpaceOnUse"><stop offset="0.3" stop-color="#51b8dc"/><stop offset="1" stop-color="#fff"/></linearGradient><linearGradient id="linear-gradient-16" x1="262.46" y1="748.26" x2="348.3" y2="748.26" xlink:href="#linear-gradient-15"/><linearGradient id="linear-gradient-17" x1="334.41" y1="655.17" x2="457.21" y2="655.17" gradientUnits="userSpaceOnUse"><stop offset="0.64" stop-color="#ef4679"/><stop offset="1" stop-color="#342b52" stop-opacity="0"/></linearGradient><linearGradient id="linear-gradient-18" x1="69.11" y1="956.35" x2="83.1" y2="956.35" xlink:href="#linear-gradient-6"/><linearGradient id="linear-gradient-19" x1="111.23" y1="985.23" x2="127.63" y2="985.23" xlink:href="#linear-gradient-6"/><linearGradient id="linear-gradient-20" x1="137.5" y1="982.41" x2="149.96" y2="982.41" xlink:href="#linear-gradient-6"/><linearGradient id="linear-gradient-21" x1="141.19" y1="979.16" x2="171.72" y2="979.16" xlink:href="#linear-gradient-6"/><linearGradient id="linear-gradient-22" x1="184.15" y1="932.73" x2="197.16" y2="932.73" xlink:href="#linear-gradient-6"/><linearGradient id="linear-gradient-23" x1="402.92" y1="796.25" x2="416.48" y2="796.25" gradientUnits="userSpaceOnUse"><stop offset="0.56" stop-color="#b53c66"/><stop offset="1" stop-color="#342b52" stop-opacity="0"/></linearGradient><linearGradient id="linear-gradient-24" x1="847.48" y1="1067.24" x2="863.85" y2="1038.87" gradientTransform="matrix(-0.92, -0.38, -0.38, 0.92, 1718.95, 169.16)" xlink:href="#linear-gradient-12"/><linearGradient id="linear-gradient-25" x1="488.86" y1="697.49" x2="527.43" y2="697.49" gradientUnits="userSpaceOnUse"><stop offset="0" stop-color="#63c6d2"/><stop offset="0.18" stop-color="#61c1ce"/><stop offset="1" stop-color="#342b52"/></linearGradient><linearGradient id="linear-gradient-26" x1="443.08" y1="619.97" x2="463.76" y2="619.97" xlink:href="#linear-gradient-25"/><linearGradient id="linear-gradient-27" x1="328.6" y1="650.64" x2="409.7" y2="650.64" xlink:href="#linear-gradient-17"/><linearGradient id="linear-gradient-28" x1="355.41" y1="680.45" x2="458.67" y2="680.45" xlink:href="#linear-gradient-25"/><linearGradient id="linear-gradient-29" x1="341.82" y1="684.51" x2="382.02" y2="684.51" xlink:href="#linear-gradient-25"/><linearGradient id="linear-gradient-30" x1="16.97" y1="741.96" x2="102.13" y2="741.96" gradientUnits="userSpaceOnUse"><stop offset="0" stop-color="#b82154"/><stop offset="0.8" stop-color="#ed2c65"/></linearGradient><linearGradient id="linear-gradient-31" x1="16.97" y1="713.65" x2="117.45" y2="713.65" gradientUnits="userSpaceOnUse"><stop offset="0.27" stop-color="#b82154"/><stop offset="1" stop-color="#ed2c65"/></linearGradient><linearGradient id="linear-gradient-32" x1="66.57" y1="684.16" x2="158.99" y2="684.16" xlink:href="#linear-gradient-31"/><linearGradient id="linear-gradient-33" x1="83.54" y1="760.6" x2="175.95" y2="760.6" xlink:href="#linear-gradient-31"/><linearGradient id="linear-gradient-34" x1="66.57" y1="718.67" x2="217.5" y2="718.67" xlink:href="#linear-gradient-31"/><linearGradient id="linear-gradient-35" x1="100.48" y1="654.11" x2="176.98" y2="654.11" xlink:href="#linear-gradient-31"/><linearGradient id="linear-gradient-36" x1="117.45" y1="653.16" x2="202.25" y2="653.16" xlink:href="#linear-gradient-31"/><linearGradient id="linear-gradient-37" x1="93.08" y1="640.53" x2="202.25" y2="640.53" xlink:href="#linear-gradient-31"/><linearGradient id="linear-gradient-38" x1="93.08" y1="629.61" x2="155.95" y2="629.61" xlink:href="#linear-gradient-31"/><linearGradient id="linear-gradient-39" x1="132.71" y1="569.85" x2="206.78" y2="569.85" xlink:href="#linear-gradient-31"/><linearGradient id="linear-gradient-40" x1="173.69" y1="603.54" x2="253.12" y2="603.54" xlink:href="#linear-gradient-30"/><linearGradient id="linear-gradient-41" x1="158.99" y1="657.13" x2="245.49" y2="657.13" xlink:href="#linear-gradient-30"/><linearGradient id="linear-gradient-42" x1="175.95" y1="767.12" x2="262.46" y2="767.12" xlink:href="#linear-gradient-31"/><linearGradient id="linear-gradient-43" x1="155.95" y1="570.55" x2="250.51" y2="570.55" xlink:href="#linear-gradient-31"/><linearGradient id="linear-gradient-44" x1="158.99" y1="671.81" x2="245.49" y2="671.81" xlink:href="#linear-gradient-31"/><linearGradient id="linear-gradient-45" x1="185.28" y1="556.52" x2="297.21" y2="556.52" gradientUnits="userSpaceOnUse"><stop offset="0.05" stop-color="#51b8dc"/><stop offset="1" stop-color="#fff"/></linearGradient><linearGradient id="linear-gradient-46" x1="206.78" y1="531.36" x2="297.21" y2="531.36" xlink:href="#linear-gradient-15"/><linearGradient id="linear-gradient-47" x1="173.69" y1="608.62" x2="324.85" y2="608.62" xlink:href="#linear-gradient-15"/><linearGradient id="linear-gradient-48" x1="253.12" y1="558.85" x2="365.05" y2="558.85" xlink:href="#linear-gradient-15"/><linearGradient id="linear-gradient-49" x1="250.51" y1="547.18" x2="365.06" y2="547.18" xlink:href="#linear-gradient-15"/><linearGradient id="linear-gradient-50" x1="198.6" y1="718.77" x2="309.08" y2="718.77" xlink:href="#linear-gradient-15"/><linearGradient id="linear-gradient-51" x1="476.15" y1="763.92" x2="489.31" y2="763.92" xlink:href="#linear-gradient-6"/><linearGradient id="linear-gradient-52" x1="1074.06" y1="142.73" x2="1074.06" y2="142.73" gradientTransform="translate(-22.15 94.95) rotate(-5.44)" xlink:href="#linear-gradient-3"/></defs><title>aboutus</title><path class="cls-1" d="M1455.52,644.36h0c-.75,1.22-1.5,2.42-2.26,3.64v0q-5.61,9-11.63,18.05-8.36,12.49-17.45,24.83c-2.68,3.63-5.4,7.23-8.18,10.84-13.73,17.85-28.6,35.38-44.52,52.38q-14.32,15.3-29.76,30h0l-1.47,1.4q-6.88,6.5-13.94,12.81-8.86,7.92-18,15.59-19,15.9-39.2,30.49a.92.92,0,0,1-.22.17h0q-6.94,5-14,9.87-8.08,5.52-16.33,10.81-7.11,4.56-13.72,8.62-10.23,6.3-19.38,11.52-10.1,5.76-19,10.28h0c-5.17,2.65-10.05,5-14.65,7.06l0,0-3.82,1.17-21-.64h-.12l-53.53-1.64-16.61-.51h0c-4-2.33-8.09-4.73-12.52-7-3.84-2-7.91-4-12.33-5.77a119.45,119.45,0,0,0-22.09-6.57c-2.81-.56-5.75-1.06-8.84-1.45-2.81-.36-5.74-.65-8.78-.85a186.42,186.42,0,0,0-23.71-.06l-1.21.07c-4.9.31-10,.78-15.48,1.46q-7.53.93-15.81,2.36l-2.13.38h0l-2.72.51c-10.5,2-21.91,4.61-34.35,8-2.53.68-5,1.39-7.58,2.15q-6.43,1.89-12.82,4.07-12.59,4.28-25,9.52A500.82,500.82,0,0,0,808.75,940q-9,5.4-17.88,11.13c-156.43,100.4-291,268.14-432.6,200.71C306.66,1127.26,260.6,1084.6,225.7,1029h0a430.1,430.1,0,0,1-45.32-98.66,467.9,467.9,0,0,1-12.42-47.71q-3-14.52-5.14-29.54c-8-55.79-7-116.28,5.31-179.32,13.39-68.6,40.16-140.23,83.3-212.15C434.58,156.31,667.54,143.5,667.54,143.5S678.81,280.13,894.2,264.55s567.47-14.68,617.33,114.35C1538.47,448.62,1514.52,547.82,1455.52,644.36Z" transform="translate(-16.97 -29.5)"/><path class="cls-2" d="M1197.34,649.48l-.12.37-.06.22-.09.27c-1,3-4.48,13.5-10.53,28.91h0c-1.21,3.07-2.53,6.34-3.93,9.79-.9,2.18-1.85,4.45-2.84,6.78-.79,1.91-1.63,3.87-2.5,5.88-18.56,43-50.06,104.91-94.69,155.56-.64.73-1.28,1.46-1.93,2.17-6.92,7.74-14.14,15.22-21.69,22.29-2.37,2.23-4.76,4.4-7.18,6.55a119.45,119.45,0,0,0-22.09-6.57c-2.81-.56-5.75-1.06-8.84-1.45-2.81-.36-5.74-.65-8.78-.85a186.42,186.42,0,0,0-23.71-.06l-1.21.07c-4.9.31-10,.78-15.48,1.46q-7.53.93-15.81,2.36l-2.13.38h0l-2.72.51c-10.5,2-21.91,4.61-34.35,8-2.53.68-5,1.39-7.58,2.15q-6.43,1.89-12.82,4.07-12.59,4.28-25,9.52A500.82,500.82,0,0,0,808.75,940q-9,5.4-17.88,11.13c-114.52.73-266.5-4.31-408.49-10.69l-.47,0c-15.28-.69-30.46-1.38-45.45-2.11-55.43-2.62-108.46-5.39-156.1-8a467.9,467.9,0,0,1-12.42-47.71q-3-14.52-5.14-29.54c-8-55.79-7-116.28,5.31-179.32l25.39-4.82,90.15-67.51,99.79-17.66L414.07,564l45.39-52.5,37.31-32.3,42,6.36,134.4,146.28,61.58,33.58,11.35,22.88h48.17l37.14,19.52,47.35-43.47,45.48-5.65,22-21.2,48.74-11.28,20.77-30.94,6.59-9.78,1.15-1.73,2.65-2.35,12.58-11.18L1078.34,535l42.4-8.66,14.55,14.73,19.49,34.08,2,3.41,4.86,8.48,10.23,17.88,9.11,15.92.21.36Z" transform="translate(-16.97 -29.5)"/><path class="cls-3" d="M959.4,881.16c-10.73,2-22.38,4.71-35.09,8.12-2.58.69-5.16,1.43-7.74,2.2q-6.59,1.93-13.09,4.16Q890.61,900,878,905.36a512.25,512.25,0,0,0-63.89,32.87q-9.2,5.52-18.26,11.37c-159.79,102.56-297.25,273.9-441.89,205-52.72-25.12-99.77-68.69-135.42-125.52h0a439.87,439.87,0,0,1-46.31-100.78,482.21,482.21,0,0,1-12.68-48.74l103.28-.8h0l24.05-.18h.05l45.84-.36,25.53-.2,26.23-.21,63.47-.49h.45l1,0h0l4.7,0,120.59-.94,231.42-1.81h0l4.54,0h0l6.37,0h0l32-.25s22.07,1,58.37,3.32C922.54,878.5,940,879.7,959.4,881.16Z" transform="translate(-16.97 -29.5)"/><path class="cls-3" d="M957.34,884.61l3.62,1-5.85-.78.16-.36Z" transform="translate(-16.97 -29.5)"/><path class="cls-3" d="M1146.79,903.25l-53.53-1.64-16.61-.51h0c-4-2.33-8.09-4.73-12.52-7q16,1.58,32.38,3.37C1113,899.23,1129.85,901.17,1146.79,903.25Z" transform="translate(-16.97 -29.5)"/><path class="cls-4" d="M1205.38,885.37q-10.1,5.76-19,10.28h0c-5.17,2.65-10.05,5-14.65,7.06l0,0-3.82,1.17-21-.64h-.12l-53.53-1.64-16.61-.51h0c-4-2.33-8.09-4.73-12.52-7-3.84-2-7.91-4-12.33-5.77a119.45,119.45,0,0,0-22.09-6.57c-2.81-.56-5.75-1.06-8.84-1.45-2.81-.36-5.74-.65-8.78-.85a186.42,186.42,0,0,0-23.71-.06l-1.21.07c-4.9.31-10,.78-15.48,1.46q-7.53.93-15.81,2.36l-2.13.38h0l-2.72.51c-10.5,2-21.91,4.61-34.35,8-2.53.68-5,1.39-7.58,2.15q-6.43,1.89-12.82,4.07-12.59,4.28-25,9.52A500.82,500.82,0,0,0,808.75,940l-91.23-16H649l-9.65-5.55-19,.42,7,6.47-35.51-7.73L494,924l-79.5-22.93-26.29-20.21,69.3-6.56h0l1.81-.17,1.81-.17,18.16-1.72h0l70.43-6.82,40-3.86,14.06-1.37h0l3.91-.38,58.65-5.67h0l.16,0,3.82-.37h0l91.28-8.84,32-3.1h0l30.94-3h0l8.74-.85,36.69-3.55,15.55-1.5h0l19.45-1.88h0l26.58-2.58,9.26,1.93,5.37,1.12,5,1,17.3,3.6,3.85.8.56.12,1.64.34,14.17,2.94h0l8.14,1.7,2.41.5,15.36,3.19,15.82,3.29,3,.62,2.68.56,21.38,4.44,14.46,3,8.56,1.78,38.88,8.08L1165.3,877Z" transform="translate(-16.97 -29.5)"/><path class="cls-5" d="M1254.81,854.42q-8.08,5.52-16.33,10.81-7.11,4.56-13.72,8.62-10.23,6.3-19.38,11.52-10.1,5.76-19,10.28h0c-5.17,2.65-10.05,5-14.65,7.06l0,0-3.82,1.17-21-.64h-.12l-53.53-1.64-16.61-.51h0c-4-2.33-8.09-4.73-12.52-7-3.84-2-7.91-4-12.33-5.77a119.45,119.45,0,0,0-22.09-6.57c-2.81-.56-5.75-1.06-8.84-1.45-2.81-.36-5.74-.65-8.78-.85a186.42,186.42,0,0,0-23.71-.06l-1.21.07c-4.9.31-10,.78-15.48,1.46q-7.53.93-15.81,2.36l-2.13.38h0l-2.72.51c-10.5,2-21.91,4.61-34.35,8-2.53.68-5,1.39-7.58,2.15l-48.72-5.34-98.69,5.26h0l-6,.31h0l-38.09,2L450.13,880.58l6.3-.24,124.24-4.58h0L765,869h.24l2.12-.08h.38l41.72-1.54,21.64-.81h0l34-1.25,79.09-2.91,2.58-.09,1.8-.07h0l2-.07,15.75-.59,25.7-.94,1.9-.08,19.63-.71,16.56-.61,1,0,.95,0,22.1-.81,17.89-.66,10.49-.39,46.15-1.69h0l33.11-1.23h0l52.59-1.94Z" transform="translate(-16.97 -29.5)"/><path class="cls-5" d="M1186.38,895.65c-5.17,2.65-10.05,5-14.65,7.06l0,0-3.82,1.17-21-.64h-.12l-53.53-1.64-16.61-.51h0c-4-2.33-8.09-4.73-12.52-7-3.84-2-7.91-4-12.33-5.77a119.45,119.45,0,0,0-22.09-6.57c-2.81-.56-5.75-1.06-8.84-1.45-2.81-.36-5.74-.65-8.78-.85a186.42,186.42,0,0,0-23.71-.06l-1.21.07c-4.9.31-10,.78-15.48,1.46q-7.53.93-15.81,2.36l-2.13.38h0l-2.72.51c-10.5,2-21.91,4.61-34.35,8-2.53.68-5,1.39-7.58,2.15q-6.43,1.89-12.82,4.07l-25-2.37-13.35-1.27-52.25,9.24-44-9.75h0l-4-.9-2,1.21h0l-22.93,14.11-248.06,6.81-96.4-34.5,67.24-4.82,1.25-.08,1.25-.09,11.52-.83,73.57-5.26h.05l48.64-3.47h0l5.62-.41h0l99.78-7.14h.13l5.64-.41h0l48.62-3.48,31.59-2.25,17.74-1.28,22.91-1.64,34.95-2.5,3.67-.26,12.88,2.28,69,12.21,1.81.32,2.48.44h0l1.93.34h0l14.09,2.5,25.08,4.44,1.47.26,21.29,3.77,11,1.94,10.94,1.94h0l24.51,4.33,23.48,4.16,21.39,2,63.08,5.94Z" transform="translate(-16.97 -29.5)"/><rect class="cls-6" x="853.67" y="863.25" width="1.3" height="15.07"/><path class="cls-7" d="M1455.52,644.36h0c-.75,1.22-1.5,2.42-2.26,3.64v0q-5.61,9-11.63,18.05-8.36,12.49-17.45,24.83c-2.68,3.63-5.4,7.23-8.18,10.84-13.73,17.85-28.6,35.38-44.52,52.38q-14.32,15.3-29.76,30h0l-1.47,1.4q-6.88,6.5-13.94,12.81-8.86,7.92-18,15.59-19,15.9-39.2,30.49a.92.92,0,0,1-.22.17h0q-6.94,5-14,9.87-8.08,5.52-16.33,10.81-7.11,4.56-13.72,8.62-10.23,6.3-19.38,11.52-10.1,5.76-19,10.28h0c-5.17,2.65-10.05,5-14.65,7.06l0,0-3.82,1.17-21-.64h-.12l-53.53-1.64-16.63-.52c-4-2.33-8.09-4.73-12.52-7-3.84-2-7.91-4-12.33-5.77a119.45,119.45,0,0,0-22.09-6.57c-2.81-.56-5.75-1.06-8.84-1.45-2.81-.36-5.74-.65-8.78-.85a186.42,186.42,0,0,0-23.71-.06l-1.21.07c-4.9.31-10,.78-15.48,1.46l-10.76-8-10.71-8-3.38-2.52-.68-.51-1.72-1.29-39.31-29.42h0l-12.39-9.28-6.88-5.16-11.74-8.78-4.52-3.38-3.93-2.94-7.69-5.76,54.77-53.71,18.54-23.49,23.86-30.22,8.48-6.35,23.32-33.22,13.75,9.9,12.4,20.49,31.44-34.64,44.16-7h0l9.18-10.61,31.81-10.59L1145,591.11l.13-.22.27-.45,9.34-15.29,47-76.88,0,0h0l33.15-25.4,38.17,6.35,7.07,10.6,58.65,65,7.07,33.22,96.55,49.65Z" transform="translate(-16.97 -29.5)"/><path class="cls-8" d="M942.49,880.57H450.13l95.82-81H585.8l11.87-10.65,31.38-17.14,37.31,41.73,41.55-24.59H763l22.05-30.51L891,742.06l21.71-18.62,18.55-4.88S968.47,861.32,942.49,880.57Z" transform="translate(-16.97 -29.5)"/><path class="cls-9" d="M1088.67,637.47l-6,21.2-20.2,46.64-5.59,22.61-23.56,46.64L1030.56,849l-.38,10.18-.16,4.4-6.52,11.85-2.65,4.8c-2.81-.36-5.74-.65-8.78-.85a186.42,186.42,0,0,0-23.71-.06l-1.21.07c-4.9.31-10,.78-15.48,1.46q-7.53.93-15.81,2.36l-.42.85-1.71-.47h0l-11.21-3,1.74-18.21.09-.92.09-1,2.2-23,5,2.43,20.46,9.93,16.73-9.47h0l10.09-5.71,21.67-62.9,21.07-37.46-21.07-41.69,49-24,.7-17,18.37-14.13Z" transform="translate(-16.97 -29.5)"/><path class="cls-10" d="M1216.89,522.28l-6.45,24,5.37,21.2-15.2,29.68-19.46,24-1.15,1.42,17.34,26.86-.12.37-.06.22-.09.27-8.53,28.33-3.17,10.58-1.71,5.61-1.9,6.33-15.39,51.12,0,0,0,.06-.08.11c-1.84,2.46-20.34,27.26-21.34,32.56-1,5.56,0,49.56,0,49.56l17,19.71h0l1.42,1.66,2,21,1.61,16.79,1,10.07-21-.64h-.12l-53.53-1.64-16.63-.52c-4-2.33-8.09-4.73-12.52-7-3.84-2-7.91-4-12.33-5.77a119.45,119.45,0,0,0-22.09-6.57c-2.81-.56-5.75-1.06-8.84-1.45l2.65-4.8,6.52-11.85,1.13-4.44,2.42-9.52,23.31-91.34,21.46-16.26,10.33-46.63,38.41-25.49,17.79-32.46,27-32.55.55-.66,2.15-26.86,14.56-22.61,12.65-56.52h0v0h0L1232.6,487Z" transform="translate(-16.97 -29.5)"/><path class="cls-11" d="M1224.76,873.85q-10.23,6.3-19.38,11.52-10.1,5.76-19,10.28h0c-5.17,2.65-10.05,5-14.65,7.06l0,0-3.82,1.17-1-10.07L1165.3,877l-2-21-1.42-1.66h0l-17-19.71V785.08l21.34-32.56.08-.11,0-.06,0,0,38.14,79.4,9.94,20.7Z" transform="translate(-16.97 -29.5)"/><polygon class="cls-12" points="1187.55 802.24 1181.95 716.09 1202.44 665.56 1199.62 623.52 1207.39 602.32 1183.63 567.69 1163.03 593.13 1180.37 619.99 1149.39 722.81 1187.55 802.24"/><path class="cls-13" d="M1322.59,672.8l2.82-35.33-3.16-20.09v0l-3.19-20.15-9.9-45.94-22.61-24L1307.86,549h0l38,39-3.28,22.75-3.86,26.72,75.69,38.86,1.54,25.42c-13.73,17.85-28.6,35.38-44.52,52.38q-14.32,15.3-29.76,30l5.61-49.8Z" transform="translate(-16.97 -29.5)"/><path class="cls-11" d="M1424.18,690.91c-2.68,3.63-5.4,7.23-8.18,10.84l-1.54-25.42Z" transform="translate(-16.97 -29.5)"/><path class="cls-14" d="M1441.63,666.08q-8.36,12.49-17.45,24.83l-9.72-14.58,25-12Z" transform="translate(-16.97 -29.5)"/><polygon class="cls-8" points="1039.9 698.43 1071.7 665.92 1083.05 630.59 1110.1 615.03 1112.69 586.77 1080.89 597.37 1071.7 607.97 1065.7 629.17 1045.5 675.81 1039.9 698.43"/><polygon class="cls-8" points="895.74 712.56 938.14 658.85 924.01 698.43 895.74 712.56"/><polygon class="cls-8" points="938.14 658.85 946.62 652.5 948.74 656.74 938.14 658.85"/><polygon class="cls-8" points="983.68 629.18 977.72 629.88 973.12 635.89 946.62 652.5 969.94 619.27 983.68 629.18"/><polygon class="cls-8" points="996.09 649.66 1003.63 663.09 1028.95 621.75 1071.7 607.97 1027.53 615.03 996.09 649.66"/><polygon class="cls-8" points="1112.69 586.77 1131.42 575.46 1149.39 551.08 1151.21 538.36 1168.17 517.87 1184.78 468.75 1112.69 586.77"/><polygon class="cls-8" points="1184.78 468.76 1217.98 443.31 1215.63 457.44 1184.78 468.76"/><polygon class="cls-8" points="1256.15 449.67 1227.89 456.03 1217.98 443.31 1256.15 449.67"/><polygon class="cls-8" points="1215.63 457.44 1234.24 476.53 1237.07 518.58 1229.65 536.24 1215.63 457.44"/><polygon class="cls-8" points="1269.58 497.73 1242.37 468.75 1269.58 483.24 1292.19 521.75 1269.58 497.73"/><polygon class="cls-8" points="1256.15 449.67 1256.15 460.63 1263.22 460.27 1267.28 468.75 1321.88 525.28 1256.15 449.67"/><polygon class="cls-8" points="1325.66 581.25 1425.49 608.15 1328.94 558.5 1325.66 581.25"/><path class="cls-8" d="M1455.52,644.36h0c-.75,1.22-1.5,2.42-2.26,3.64l-10.8-10.36Z" transform="translate(-16.97 -29.5)"/><polygon class="cls-15" points="1229.65 536.24 1207.39 602.32 1232.83 590.3 1242.37 543.66 1237.07 518.58 1229.65 536.24"/><polygon class="cls-15" points="1199.91 492.78 1207.39 525.28 1198.84 538.01 1193.48 516.81 1199.91 492.78"/><polygon class="cls-15" points="1242.37 468.75 1234.24 476.53 1237.07 518.58 1259.95 487.48 1242.37 468.75"/><polygon class="cls-15" points="1149.39 551.08 1172.12 525.29 1168.17 517.87 1151.21 538.36 1149.39 551.08"/><polygon class="cls-15" points="1227.89 456.03 1256.15 468.76 1256.15 449.67 1227.89 456.03"/><polygon class="cls-15" points="1269.58 483.24 1321.88 525.28 1309.15 527.76 1269.58 483.24"/><polygon class="cls-8" points="1242.37 543.66 1289.01 575.7 1289.01 679.35 1242.37 619.27 1232.83 590.3 1242.37 543.66"/><polygon class="cls-11" points="904.58 746.72 924.01 698.43 955.1 820.33 925.52 805.23 904.58 746.72"/><path class="cls-13" d="M1056.88,727.92l-23.56,46.64L1030.56,849l-.38,10.18-.16,4.4-6.52,11.85-2.65,4.8c-2.81-.36-5.74-.65-8.78-.85a186.42,186.42,0,0,0-23.71-.06l-1.21.07,2.61-9.93,2.33-8.88L997,842.05l1.95-7.41,21.67-62.9Z" transform="translate(-16.97 -29.5)"/><polygon class="cls-15" points="1202.44 665.56 1234.24 634.83 1205.98 717.15 1218.34 791.36 1197.48 822.92 1187.55 802.24 1181.95 716.09 1202.44 665.56"/><polygon class="cls-15" points="973.12 635.89 1024.69 704.79 983.68 629.18 977.72 629.88 973.12 635.89"/><polygon class="cls-15" points="948.74 656.74 965.15 681.7 956.95 646.03 946.62 652.5 948.74 656.74"/><polygon class="cls-15" points="955.1 820.33 965.15 681.7 981.96 805.14 955.1 820.33"/><polygon class="cls-13" points="1232.83 590.3 1234.24 634.83 1289.01 679.35 1242.37 619.27 1232.83 590.3"/><path class="cls-8" d="M1312.7,788.88l-4.43,25q-19,15.9-39.2,30.49l.73-2,0,0,22.72-62.56L1306,708.84Z" transform="translate(-16.97 -29.5)"/><polygon class="cls-7" points="1150.91 874.4 1129.94 873.76 1129.82 873.75 1076.3 872.11 1079.52 867.92 1086.86 858.39 1102.56 838.03 1111.76 826.08 1111.77 826.08 1127.9 805.14 1144.88 824.86 1144.89 824.86 1146.31 826.51 1148.33 847.54 1149.94 864.33 1150.91 874.4"/><polygon class="cls-13" points="1110.1 640.44 1061.37 712.56 1071.7 665.92 1110.1 640.44"/><polygon class="cls-13" points="1197.48 822.92 1205.98 717.15 1218.34 791.36 1197.48 822.92"/><polygon class="cls-13" points="1003.63 742.24 973.12 635.89 1024.69 704.79 1003.63 742.24"/><polygon class="cls-16" points="940.38 855.11 943.99 856.09 938.14 855.31 938.31 854.96 938.48 854.59 940.38 855.11"/><path class="cls-16" d="M1041.66,734.28l-21.07,37.46-21.21,70.81-5.39,18-2.76,9.22-2.87,9.6-1.21.07c-4.9.31-10,.78-15.48,1.46q-7.53.93-15.81,2.36l5-10.41,3.77-7.78,1.71-3.5,5.69-11.73,2.56-12.41,14.86-72v0l.59-100Z" transform="translate(-16.97 -29.5)"/><polygon class="cls-13" points="904.58 746.72 831.28 829.62 781.68 851.07 925.52 851.07 929.65 807.97 925.52 805.23 904.58 746.72"/><polygon class="cls-13" points="895.74 712.56 828.6 770.07 821.82 801.87 904.58 746.72 924.01 698.43 895.74 712.56"/><polygon class="cls-13" points="433.16 851.07 517.11 827.17 610.38 818.76 555.55 851.07 433.16 851.07"/><polygon class="cls-13" points="746.06 759.38 688.4 801.87 610.38 818.76 649.39 783.97 690.94 759.38 746.06 759.38"/><polygon class="cls-13" points="610.38 818.76 675.96 827.17 750.02 839.77 790.72 797.95 821.82 801.87 781.68 851.07 555.55 851.07 610.38 818.76"/><polygon class="cls-13" points="517.11 827.17 568.83 770.04 568.83 822.92 517.11 827.17"/><polygon class="cls-16" points="790.72 797.95 768.11 728.87 828.6 770.07 821.82 801.87 790.72 797.95"/><polygon class="cls-9" points="781.68 851.07 821.82 801.87 904.58 746.72 831.28 829.62 781.68 851.07"/><polygon class="cls-9" points="610.38 818.76 688.4 801.87 746.06 759.38 768.11 728.87 790.72 797.95 750.02 839.77 610.38 818.76"/><polygon class="cls-9" points="800.63 751.02 895.74 712.56 828.6 770.07 800.63 751.02"/><polygon class="cls-9" points="433.16 851.07 487.14 818.76 568.83 770.04 517.11 827.17 433.16 851.07"/><polygon class="cls-9" points="568.83 822.92 587.77 784.32 612.08 742.24 603.6 794 610.38 818.76 568.83 822.92"/><path class="cls-2" d="M1167.88,903.9l3.82-1.17-3,1.32h0Z" transform="translate(-16.97 -29.5)"/><path class="cls-17" d="M1197.34,649.48l-.12.37-.06.22-.09.27-8.53,28.33-3.17,10.58-1.71,5.61-1.9,6.33-15.39,51.12,0,0,0,.06-.08.11-21.34,32.56v49.56l-16.13,20.94h0l-9.2,11.94-15.7,20.37-7.34,9.53-3.23,4.19-16.61-.51h0c-4-2.33-8.09-4.73-12.52-7-3.84-2-7.91-4-12.33-5.77a119.45,119.45,0,0,0-22.09-6.57l4.75-4.31h0l12.38-11.2,7.37-7.88,3.43-3.67,35.63-38.08,9.44-36.06,27-24.62,26.14-59.53,1-2.34,2.36-5.39,5-11.44,3.64-8.28-1-37.1,13.14-9.19Z" transform="translate(-16.97 -29.5)"/><polygon class="cls-17" points="1149.89 602.32 1130.38 619.27 1096.56 691.39 1150.35 619.27 1149.89 602.32"/><path class="cls-2" d="M1056.88,727.92l-23.56,46.64L1030.56,849l-.38,10.18-.16,4.4-6.52,11.85-2.65,4.8c-2.81-.36-5.74-.65-8.78-.85l.45-5.89,1.1-13.7,1.12-14.08,5.85-74Z" transform="translate(-16.97 -29.5)"/><polygon class="cls-2" points="781.68 851.07 848.18 835.79 904.58 746.72 924.01 698.43 929.65 807.97 925.52 851.07 781.68 851.07"/><polygon class="cls-2" points="433.16 851.07 530.71 839.77 568.83 770.04 568.83 822.92 574.77 836.82 610.38 818.76 662.96 792.31 688.4 801.87 648.33 824.51 724.01 835.86 755.11 805.14 746.06 759.38 790.72 797.95 750.02 839.77 821.82 801.87 781.68 851.07 433.16 851.07"/><polygon class="cls-2" points="828.6 770.07 895.74 712.56 814.41 760.4 828.6 770.07"/><polygon class="cls-13" points="1024.69 704.79 1047.52 655.67 1011.84 679.35 1024.69 704.79"/><path class="cls-2" d="M1292.55,779.77l-22.72,62.56,0,0-1,2.18h0q-6.94,5-14,9.87-8.08,5.52-16.33,10.81-7.11,4.56-13.72,8.62l-10.31-21.44,20.86-31.56L1223,746.65l28.27-82.33,3.15,14.35,1.78,8.15.55,2.53,1.81,8.25,4.54,20.74Z" transform="translate(-16.97 -29.5)"/><polygon class="cls-10" points="1237.07 518.58 1269.58 532.4 1289.01 575.7 1242.37 543.66 1237.07 518.58"/><path class="cls-13" d="M1308.27,813.89l4.43-25-6.72-80,26,48.41-5.72,41Q1317.44,806.22,1308.27,813.89Z" transform="translate(-16.97 -29.5)"/><path class="cls-2" d="M1371.48,754.13q-14.32,15.3-29.76,30h0l-1.47,1.4L1342,741l5.34-6.75-24.74-61.48,1.81-31.8-3.61-12.53,1.46-11.09v0l2.36-18-15.45-48.08,20.33,50.15-4.08,36.07,8.25,7.89v19l35.83,46.88,1,38.58Z" transform="translate(-16.97 -29.5)"/><polygon class="cls-18" points="1184.78 468.76 1162.99 516.71 1112.69 586.77 1184.78 468.76"/><polygon class="cls-18" points="1112.69 586.77 1101.09 604.87 1086.95 607.97 1082.43 619.21 1076.3 619.27 1061.37 660.27 1039.9 698.43 1045.5 675.81 1065.7 629.17 1071.7 607.97 1080.89 597.37 1112.69 586.77"/><polygon class="cls-18" points="946.62 652.5 973.12 635.89 977.72 629.88 969.94 619.27 946.62 652.5"/><polygon class="cls-18" points="768.11 728.87 800.63 751.02 874.02 712.56 768.11 728.87"/><polygon class="cls-18" points="914.28 689.07 921.6 689.07 938.14 658.85 914.28 689.07"/><polygon class="cls-18" points="874.02 712.56 889.8 706.29 914.28 689.07 895.74 693.94 874.02 712.56"/><polygon class="cls-18" points="946.62 652.5 958.91 685.71 955.1 820.33 965.15 681.7 946.62 652.5"/><polygon class="cls-18" points="1003.63 663.09 1028.95 621.75 1071.7 607.97 1027.53 615.03 996.09 649.66 1003.63 663.09"/><polygon class="cls-18" points="612.08 742.24 620.99 782.58 633.72 797.95 649.39 783.97 612.08 742.24"/><polygon class="cls-18" points="568.83 770.04 568.83 822.92 579.49 782.58 579.49 768.14 612.08 742.24 580.71 759.38 568.83 770.04"/><polygon class="cls-18" points="433.16 851.07 525.27 786.79 529.83 774.75 568.83 770.04 528.98 770.04 433.16 851.07"/><polygon class="cls-18" points="746.06 759.38 716.38 767.71 648.33 824.51 688.4 801.87 746.06 759.38"/><polygon class="cls-18" points="768.11 728.87 790.72 774.75 821.82 801.87 805 774.75 768.11 728.87"/><polygon class="cls-18" points="924.01 698.43 872.91 745.07 821.82 801.87 891.07 741.31 924.01 698.43"/><polygon class="cls-18" points="1013.05 834.11 1042.01 771.95 1051.76 728.87 1080.59 709.34 1110.1 640.44 1061.37 712.56 1039.9 728.82 1013.05 834.11"/><polygon class="cls-18" points="1215.63 457.44 1197.48 481.58 1187.86 515.39 1190.41 536.24 1176.41 567.69 1163.03 593.13 1183.63 567.69 1198.84 538.01 1193.48 516.81 1200.43 497.73 1215.63 457.44"/><polygon class="cls-18" points="1237.07 518.58 1232.83 555.21 1207.39 602.32 1232.83 590.3 1242.37 543.66 1237.07 518.58"/><polygon class="cls-18" points="1217.98 443.31 1224.88 462.19 1256.15 468.76 1227.89 456.03 1217.98 443.31"/><polygon class="cls-6" points="1184.78 468.76 1211.18 453.11 1217.98 443.31 1184.78 468.76"/><polygon class="cls-18" points="1269.58 562.35 1289.01 679.35 1289.01 575.7 1269.58 562.35"/><polygon class="cls-18" points="1234.24 634.83 1207.39 684.29 1205.98 717.15 1234.24 634.83"/><polygon class="cls-18" points="1321.88 525.28 1321.88 543.66 1328.94 558.5 1321.88 525.28"/><polygon class="cls-18" points="1566.83 706.17 1552.51 706.93 1551.87 706.17 1566.83 706.17"/><polygon class="cls-19" points="779.96 824.69 777.27 823.79 779.69 824.05 779.96 824.69"/><polygon class="cls-14" points="779.96 824.69 777.27 823.79 779.69 824.05 779.96 824.69"/><polygon class="cls-20" points="1130.38 561.45 1032.65 568.45 990.46 565.1 962.48 565.38 936.32 557.67 949.77 541.98 976.39 529.68 1012.56 535.83 1024.05 541.98 1061.7 541.98 1084.65 554.46 1103.91 554.46 1130.38 561.45"/><path class="cls-20" d="M1289.81,690.45s-15.5,7.38-24.28,7.38-60.52-3.45-60.52-3.45l-26.29,7.69-46.63-11.62,27.14-13.87L1185,679.7l20-5.77,27.14,2.65,28,2.64Z" transform="translate(-16.97 -29.5)"/><polygon class="cls-21" points="1130.38 561.45 1032.65 568.45 990.46 565.1 962.48 565.38 936.32 557.67 949.77 541.98 964.39 554.46 996.83 553 1020.99 561.45 1071.87 560 1130.38 561.45"/><polygon class="cls-22" points="996.83 553 1027.35 550.25 1074.84 560.07 1020.99 561.45 996.83 553"/><polygon class="cls-22" points="949.77 541.98 972.23 547.28 988.79 553.36 964.39 554.46 949.77 541.98"/><path class="cls-21" d="M1289.81,690.45s-15.5,7.38-24.28,7.38-60.52-3.45-60.52-3.45l-26.29,7.69-46.63-11.62,43.88,6.31,25.65-6.31h51.52L1261,688Z" transform="translate(-16.97 -29.5)"/><polygon class="cls-22" points="1244.02 658.5 1225.14 653.91 1186.99 656.21 1184.65 660.95 1236.17 660.95 1244.02 658.5"/><polygon class="cls-22" points="1184.65 660.95 1151.58 658.5 1115.13 660.95 1159 667.26 1184.65 660.95"/><polygon class="cls-20" points="283.58 409.99 185.85 416.99 143.66 413.64 115.68 413.92 89.52 406.21 102.97 390.52 129.59 378.22 165.76 384.38 177.25 390.52 214.9 390.52 237.84 403 257.11 403 283.58 409.99"/><path class="cls-20" d="M443,539s-15.5,7.38-24.28,7.38-60.52-3.45-60.52-3.45l-26.29,7.69L285.29,539l27.14-13.87,25.74,3.12,20-5.76,27.14,2.64,28,2.64Z" transform="translate(-16.97 -29.5)"/><polygon class="cls-21" points="283.58 409.99 185.85 416.99 143.66 413.64 115.68 413.92 89.52 406.21 102.97 390.52 117.59 403 150.03 401.54 174.19 409.99 225.06 408.54 283.58 409.99"/><polygon class="cls-22" points="150.03 401.54 180.55 398.79 228.04 408.62 174.19 409.99 150.03 401.54"/><polygon class="cls-22" points="102.97 390.52 125.43 395.82 141.99 401.9 117.59 403 102.97 390.52"/><path class="cls-21" d="M443,539s-15.5,7.38-24.28,7.38-60.52-3.45-60.52-3.45l-26.29,7.69L285.29,539l43.87,6.31L354.82,539h51.52l7.85-2.45Z" transform="translate(-16.97 -29.5)"/><polygon class="cls-22" points="397.22 507.05 378.34 502.45 340.19 504.75 337.85 509.49 389.37 509.49 397.22 507.05"/><polygon class="cls-22" points="337.85 509.49 304.78 507.05 268.32 509.49 312.19 515.81 337.85 509.49"/><path class="cls-23" d="M387,375.56a1.5,1.5,0,0,0,0-3,1.5,1.5,0,0,0,0,3Z" transform="translate(-16.97 -29.5)"/><path class="cls-23" d="M469.76,286.42a1.5,1.5,0,0,0,0-3,1.5,1.5,0,0,0,0,3Z" transform="translate(-16.97 -29.5)"/><path class="cls-23" d="M391.14,486.53a1.5,1.5,0,0,0,0-3,1.5,1.5,0,0,0,0,3Z" transform="translate(-16.97 -29.5)"/><path class="cls-23" d="M269,499.53a1.5,1.5,0,0,0,0-3,1.5,1.5,0,0,0,0,3Z" transform="translate(-16.97 -29.5)"/><path class="cls-23" d="M1289.81,437.73a1.5,1.5,0,0,0,0-3,1.5,1.5,0,0,0,0,3Z" transform="translate(-16.97 -29.5)"/><path class="cls-23" d="M1392.54,552.11a1.5,1.5,0,0,0,0-3,1.5,1.5,0,0,0,0,3Z" transform="translate(-16.97 -29.5)"/><path class="cls-23" d="M1449,412.68a1.5,1.5,0,0,0,0-3,1.5,1.5,0,0,0,0,3Z" transform="translate(-16.97 -29.5)"/><circle class="cls-20" cx="1406.07" cy="464.22" r="46.67"/><path class="cls-21" d="M1397.53,532.79a46.74,46.74,0,0,1-20.17-29.46l16.4,11.2Z" transform="translate(-16.97 -29.5)"/><path class="cls-22" d="M1429.87,526.16l-14.23,13.63a46.46,46.46,0,0,1-18.11-7l-3.77-18.26Z" transform="translate(-16.97 -29.5)"/><path class="cls-24" d="M1466.27,511.32a46.69,46.69,0,0,1-50.63,28.47l14.23-13.63Z" transform="translate(-16.97 -29.5)"/><path class="cls-21" d="M1387.41,478.36l-11,15.39a46.51,46.51,0,0,1,9.31-28h0Z" transform="translate(-16.97 -29.5)"/><polygon class="cls-24" points="1428.15 431.03 1432.53 431.02 1439.91 436.14 1429.8 433.59 1428.15 431.03"/><polygon class="cls-24" points="1432.54 443.06 1428.18 461.11 1446.78 464.17 1449.28 458.9 1447.04 448.51 1432.54 443.06"/><polygon class="cls-24" points="1392.06 428.33 1396.97 425.04 1399.71 425.04 1392.06 428.33"/><polygon class="cls-22" points="1406.05 441.44 1414.5 448.27 1411.77 455.65 1407.66 451.83 1406.05 441.44"/><polygon class="cls-21" points="1383.34 464.23 1392.09 461.96 1399.75 467.97 1383.34 464.23"/><path class="cls-25" d="M403.4,1138.66a155.09,155.09,0,0,1-67.67-15.57c-51.8-24.67-97.67-67.12-132.7-122.78l-.3-.46A430.66,430.66,0,0,1,157.3,901a470.68,470.68,0,0,1-12.44-47.8c-2-9.73-3.75-19.69-5.16-29.61-8.35-58.3-6.56-118.75,5.32-179.64,14.1-72.2,42.16-143.68,83.43-212.46,41.82-69.71,89.76-129.84,142.46-178.7,42.18-39.11,87.49-71.13,134.68-95.19,80.39-41,139.19-44.63,139.77-44.67l.95,0,.08,1c0,.34,3.16,34.28,32.38,65.87,17.17,18.56,39.85,32.69,67.42,42,34.52,11.68,76.86,15.8,125.81,12.26,80.37-5.81,235.44-13.15,370.92,3,142,16.87,225.19,54.56,247.39,112,13.24,34.27,14.68,75.73,4.27,123.23-9.91,45.16-30.73,94.54-60.22,142.84v0l-.14.23c-.48.79-1,1.57-1.45,2.35l-.81,1.32c-3.8,6.12-7.72,12.2-11.65,18.07-5.54,8.29-11.42,16.66-17.48,24.87-2.61,3.54-5.36,7.19-8.18,10.86-13.82,18-28.82,35.62-44.58,52.45-9.56,10.21-19.59,20.3-29.81,30l-1.48,1.42c-4.57,4.31-9.27,8.62-14,12.82-6.15,5.5-12.22,10.75-18,15.62-12.71,10.64-25.9,20.9-39.21,30.49a1.7,1.7,0,0,1-.3.23l-.14.09c-4.82,3.49-9.37,6.68-13.89,9.77-5.45,3.72-11,7.37-16.36,10.83-5,3.23-9.53,6.05-13.73,8.62-6.57,4.05-13.09,7.93-19.4,11.54-6.68,3.81-13.08,7.27-19,10.3l-.22.11c-4.76,2.44-9.5,4.72-14.49,7l-.14,0-4,1.22-91.75-2.81-.21-.19c-4.28-2.5-8.17-4.75-12.39-7s-8.24-4.1-12.25-5.73a118.07,118.07,0,0,0-21.91-6.52c-3-.6-5.87-1.07-8.77-1.43s-5.71-.65-8.73-.86a187.12,187.12,0,0,0-23.59,0c-.38,0-.74,0-1.09.06q-7.82.5-15.53,1.46c-5.12.64-10.43,1.43-15.76,2.36l-2.22.39-2.64.49c-10.74,2-22.27,4.71-34.28,7.94-2.5.67-5,1.39-7.55,2.14-4.32,1.27-8.62,2.64-12.78,4.06-8.21,2.79-16.58,6-24.88,9.49a495.32,495.32,0,0,0-62.43,32.12c-6,3.6-12,7.33-17.85,11.11-40.6,26.06-79.89,56.79-117.9,86.51C566.51,1075.18,485.33,1138.66,403.4,1138.66ZM204.1,998.37l.3.44c34.86,55.58,80.56,97.94,132.16,122.52,25.1,12,50.49,16.89,77.6,15.09,24.33-1.6,49.64-8.65,77.38-21.54,51.85-24.09,103.71-64.66,158.63-107.6,38-29.75,77.37-60.51,118-86.61,5.88-3.79,11.91-7.54,17.9-11.14a497.33,497.33,0,0,1,62.68-32.25c8.34-3.53,16.75-6.73,25-9.54,4.18-1.43,8.51-2.8,12.86-4.08,2.52-.76,5.08-1.48,7.59-2.16,12.06-3.24,23.64-5.92,34.43-8,.93-.16,1.83-.33,2.72-.5l2.15-.38c5.38-.94,10.72-1.74,15.87-2.38s10.4-1.13,15.53-1.46c.49,0,.87-.06,1.25-.07a188.7,188.7,0,0,1,23.81.06c3,.2,6,.5,8.84.86s5.85.85,8.9,1.46a119.31,119.31,0,0,1,22.26,6.62c4.07,1.65,8.13,3.55,12.43,5.81s8.1,4.46,12.36,7l90.81,2.78,3.62-1.11c5.06-2.28,9.8-4.58,14.58-7l.22-.1c5.87-3,12.17-6.41,18.74-10.16,6.29-3.59,12.8-7.46,19.35-11.5,4.19-2.57,8.67-5.38,13.7-8.6,5.39-3.46,10.88-7.09,16.31-10.8,4.55-3.11,9.13-6.33,14-9.85l.23-.17c13.29-9.58,26.46-19.83,39.15-30.45,5.81-4.85,11.87-10.09,18-15.57,4.68-4.19,9.36-8.49,13.92-12.79l1.46-1.4c10.21-9.68,20.21-19.74,29.74-29.92,15.72-16.79,30.68-34.39,44.46-52.31,2.81-3.66,5.56-7.3,8.16-10.83,6-8.19,11.9-16.53,17.43-24.79,3.87-5.8,7.73-11.79,11.49-17.82l.94-1.52,1.29-2.1h0l.14-.25c29.46-48.19,50.25-97.46,60.12-142.48,10.33-47.11,8.92-88.2-4.18-122.11-21.92-56.73-104.62-94-245.8-110.78-135.31-16.09-290.24-8.76-370.55-3-49.25,3.56-91.87-.61-126.66-12.39-27.89-9.45-50.85-23.78-68.22-42.61-26.86-29.08-32-60.17-32.71-66-7.75.64-63.6,6.4-138.18,44.44-47,24-92.16,55.91-134.19,94.88C319.63,303,271.84,362.93,230.12,432.45,189,501,161,572.31,146.94,644.28c-11.84,60.68-13.62,120.91-5.3,179,1.4,9.88,3.12,19.8,5.13,29.48a472.22,472.22,0,0,0,12.39,47.61A429.36,429.36,0,0,0,204.1,998.37Z" transform="translate(-16.97 -29.5)"/><polygon class="cls-20" points="1469.53 851 1361.27 872.5 1267.29 858.27 1089.38 899.19 952.97 872.5 905.56 823.32 1008.64 793.02 1071.07 803.54 1184.83 793.02 1352.01 837.97 1469.53 851"/><polygon class="cls-21" points="1115.49 868.47 1267.29 858.27 1089.38 899.19 952.97 872.5 905.56 823.32 990.48 854.82 1115.49 868.47"/><polygon class="cls-21" points="1469.53 851 1361.27 872.5 1267.29 858.27 1334.01 851.42 1469.53 851"/><polygon class="cls-22" points="1352.01 837.97 1267.29 846.1 1166.08 830.98 1273.7 816.91 1352.01 837.97"/><polygon class="cls-20" points="654.21 999.21 580.98 1017.04 458.99 1043.41 365.24 1021.84 284.68 1021.84 200.12 989.12 253.43 931.03 426.54 895.7 537.6 948.53 611.6 959.73 654.21 999.21"/><polygon class="cls-22" points="654.21 999.21 580.98 1017.04 458.99 1043.41 365.24 1021.84 304.44 1021.84 276.92 982.16 374.53 960.47 452.79 969.55 534.13 996.09 611.6 959.73 654.21 999.21"/><polygon class="cls-21" points="276.92 982.16 365.24 1021.84 284.68 1021.84 200.12 989.12 276.92 982.16"/><polygon class="cls-21" points="654.21 999.21 580.98 1017.04 458.99 1043.41 365.24 1021.84 452.79 1002.01 537.22 1011.6 588.35 982.16 654.21 999.21"/><polygon class="cls-24" points="452.79 969.55 530.51 959.73 611.6 959.73 534.13 996.09 452.79 969.55"/><polygon class="cls-24" points="276.92 931.03 347.69 931.03 372.48 948.53 324.7 954.26 276.92 931.03"/><polygon class="cls-20" points="922.86 883.61 891.18 891.32 838.42 902.73 797.87 893.4 763.02 893.4 726.45 879.25 749.51 854.12 824.38 838.84 872.42 861.69 904.43 866.54 922.86 883.61"/><polygon class="cls-22" points="922.86 883.61 891.18 891.32 838.42 902.73 797.87 893.4 771.57 893.4 759.67 876.23 801.89 866.85 835.74 870.78 870.92 882.26 904.43 866.54 922.86 883.61"/><polygon class="cls-21" points="759.67 876.23 797.87 893.4 763.02 893.4 726.45 879.25 759.67 876.23"/><polygon class="cls-21" points="922.86 883.61 891.18 891.32 838.42 902.73 797.87 893.4 835.74 884.82 872.26 888.97 894.37 876.23 922.86 883.61"/><polygon class="cls-24" points="835.74 870.78 869.36 866.54 904.43 866.54 870.92 882.26 835.74 870.78"/><polygon class="cls-24" points="759.67 854.12 790.28 854.12 801 861.69 780.34 864.17 759.67 854.12"/><polygon class="cls-20" points="364.19 862.25 308.68 875.76 216.21 895.75 145.14 879.41 84.07 879.41 19.97 854.6 60.38 810.57 191.61 783.78 275.8 823.84 331.89 832.32 364.19 862.25"/><polygon class="cls-22" points="364.19 862.25 308.68 875.76 216.21 895.75 145.14 879.41 99.05 879.41 78.19 849.32 152.19 832.88 211.51 839.77 273.17 859.88 331.89 832.32 364.19 862.25"/><polygon class="cls-21" points="78.19 849.32 145.14 879.41 84.07 879.41 19.97 854.6 78.19 849.32"/><polygon class="cls-21" points="364.19 862.25 308.68 875.76 216.21 895.75 145.14 879.41 211.51 864.37 275.51 871.64 314.27 849.32 364.19 862.25"/><polygon class="cls-24" points="211.51 839.77 270.42 832.32 331.89 832.32 273.17 859.88 211.51 839.77"/><polygon class="cls-24" points="78.19 810.57 131.84 810.57 150.63 823.84 114.41 828.18 78.19 810.57"/><path class="cls-26" d="M923.88,570.64s38.16-54.55,36.47-67.27-19.43-11.87-36.43,0-34.8,34.77-34.8,34.77Z" transform="translate(-16.97 -29.5)"/><path class="cls-27" d="M923.87,570.64S772.93,762.85,648.28,815.43s-166.76,5.65-166.76,5.65,13.56-74.06-44.39-58.23c-9.45,2.59-22.23,8.85-37,17.53-1.56.92-3.18,1.89-4.79,2.86-76,46-198.17,149.21-198.17,149.21a61.89,61.89,0,0,0-3.1-8.59c0-.08-.07-.15-.13-.23v0a47.7,47.7,0,0,0-3.61-6.58c-10.4-15.73-27.11-19.64-41.92-19.37l-.94,0a99.61,99.61,0,0,0-30,5.91c1.18-1.21,44.2-45.26,104-103.59,15.76-15.39,32.68-31.76,50.32-48.6,104.55-99.88,233.85-216.23,291.72-239.57,105.16-42.4,325.64,26.29,325.64,26.29C926.44,539,923.87,570.64,923.87,570.64Z" transform="translate(-16.97 -29.5)"/><path class="cls-28" d="M1097,158.94l38.07-29.1,46.14-23.9s-1.26-3.92-17.41-4.79-51.84,1.75-51.84,1.75l-63.16,39.18Z" transform="translate(-16.97 -29.5)"/><path class="cls-29" d="M1008.28,158.75l33.35-27.08L1082.36,109s-1.24-3.47-15.74-3.83-46.41,2.93-46.41,2.93l-55.57,36.78Z" transform="translate(-16.97 -29.5)"/><path class="cls-30" d="M400.13,780.38q-2.36,1.39-4.79,2.87c-76,46-198.18,149.2-198.18,149.2a59.86,59.86,0,0,0-3.09-8.59l-.12-.23h0c0-.61.08-1,.08-1S204.5,878.74,263.3,836s78.52-96.77,78.52-96.77l27.86,1.23Z" transform="translate(-16.97 -29.5)"/><path class="cls-31" d="M395.34,783.25c-76,46-198.18,149.2-198.18,149.2a59.86,59.86,0,0,0-3.09-8.59c0-.66,0-1.09,0-1.21v0S215.4,882,262.46,855.28s85-103.26,85-103.26l21.66-.83Z" transform="translate(-16.97 -29.5)"/><path class="cls-32" d="M542.72,840.34S579.18,818,616.06,765.4s295.38-199.24,325.63-233,40.7-73.9,40.7-73.9-388.17,209-400.67,252.92S542.72,840.34,542.72,840.34Z" transform="translate(-16.97 -29.5)"/><path class="cls-33" d="M808.67,250.47,977.2,135.16s17.91-11.74,36,4.51c0,0,7.29,5.36,3.33,13S913.4,245.54,913.4,245.54Z" transform="translate(-16.97 -29.5)"/><path class="cls-34" d="M872.72,256.65l187.76-123.86s12.84-5.75,29.11-.39,12.49,23.74,12.49,23.74l-114.82,91.3Z" transform="translate(-16.97 -29.5)"/><path class="cls-26" d="M365.06,711.41l17.53,110.24,33.65,32.7a19.81,19.81,0,0,0,15.61,5.53c11.32-1,29.45-3,32.14-4.88,4-2.83,17.53-33.92,17.53-33.92l15.83-9.61s11.87-15.26,11.87-31.66V759.46s-2.83-40.7-26-41.27S365.06,711.41,365.06,711.41Z" transform="translate(-16.97 -29.5)"/><path class="cls-35" d="M1422.22,359.78c-83.11,2.26-258.36,54.84-369.72,100.06S862,572.91,738.18,636.78c-72.41,37.37-114.85,80.93-142.13,118.78v0c-19.37,26.86-31.09,50.86-40.46,67.75-22.62,40.71-53.71,27.14-58.26,8.07s11.9-86,11.9-86l-58.08-34-114.91-20.6S441.81,406.28,538.48,210.39,791.6,29.77,791.6,29.77s-61.45,56-72.41,108.39c-4.83,23.05.14,45.39,24.49,61.92.69.48,1.4.95,2.12,1.4A123.16,123.16,0,0,0,760,209.33a107.68,107.68,0,0,0,38.73,9.89A176.05,176.05,0,0,0,832.31,218c41.78-5,94.93-21.28,176.81-33.88,34.05-5.23,73.05-9.83,118.27-12.74,23.31-1.5,48.27-2.54,75.06-3q13.75-.22,26.48.1c66.48,1.6,112,13.9,142.79,31.57,16.87,9.66,29.32,20.93,38.42,32.92a106,106,0,0,1,13.21,22.81,114.71,114.71,0,0,1,8.21,30.87C1436.51,325.93,1422.22,359.78,1422.22,359.78Z" transform="translate(-16.97 -29.5)"/><polygon class="cls-36" points="464.55 791.58 473.59 764.73 478.63 783.03 464.55 791.58"/><path class="cls-37" d="M526.67,727.3S575.36,590.71,653,510.58,775.06,403.73,775.06,403.73,550.67,529.37,495.6,678.34Z" transform="translate(-16.97 -29.5)"/><path class="cls-38" d="M1410.14,233s-231.92-68.4-525.72,112.23c0,0,166-132.19,344.51-176.72C1331.78,171,1384.43,199.08,1410.14,233Z" transform="translate(-16.97 -29.5)"/><path class="cls-37" d="M1422.22,359.78c-83.11,2.26-258.36,54.84-369.72,100.06S862,572.91,738.18,636.78c-72.41,37.37-114.85,80.93-142.13,118.78.83-1.87,55.08-122.62,307.49-251.34C1157.93,374.48,1271.85,350.16,1422.22,359.78Z" transform="translate(-16.97 -29.5)"/><path class="cls-38" d="M561.77,646.88S655.5,492.77,953.14,384.65c0,0-248,78.83-344.23,180.87Z" transform="translate(-16.97 -29.5)"/><path class="cls-38" d="M1431.56,286.68c-7.77-.29-59.13-1.58-150.25,8.94-98.44,11.34-223.18,55.27-225.12,55.94,160.74-89.82,318.18-99.46,367.16-95.75A114.71,114.71,0,0,1,1431.56,286.68Z" transform="translate(-16.97 -29.5)"/><path class="cls-37" d="M404.07,686.53S507.52,572.9,509.22,464.36s69.42-273,189-339.19c0,0-83.89,19.42-119.51,232.73s-63.62,312.23-97.23,335.42S404.07,686.53,404.07,686.53Z" transform="translate(-16.97 -29.5)"/><path class="cls-39" d="M832.31,218c-9,14.36-25.86,35.11-57.25,63.6C702.79,347.19,502.37,663,500.81,665.48c.51-1.34,34.07-87.64,95.24-197.93C639.82,388.63,718.23,271,760,209.33a107.68,107.68,0,0,0,38.73,9.89A176.05,176.05,0,0,0,832.31,218Z" transform="translate(-16.97 -29.5)"/><path class="cls-39" d="M791.6,29.77s-132,12.83-229.83,190.8S481.52,639.4,481.52,639.4s52.24-122.46,52.69-161.89S563.92,195.14,791.6,29.77Z" transform="translate(-16.97 -29.5)"/><path class="cls-38" d="M1009.13,184.16s-89.06,23.69-213.72,130.53c-122.69,105.19-197,185.43-199.31,187.9,2.49-4,117.65-189.26,202.66-283.37,47.2,3.4,105-18.86,210.36-35.07Z" transform="translate(-16.97 -29.5)"/><path class="cls-39" d="M1228.93,168.51c66.48,1.6,112,13.9,142.79,31.57-45.35,2.84-116.33,12.14-224.44,36.65-239.6,54.3-435,216.54-435,216.54l-53.39,14.28S808.13,319.78,988.75,228.2c55-27.86,101.07-45.59,138.64-56.79,23.31-1.5,48.27-2.54,75.06-3Q1216.21,168.19,1228.93,168.51Z" transform="translate(-16.97 -29.5)"/><path class="cls-38" d="M743.68,200.08c-23.77,18-59.22,48.48-69.1,76.46-15,42.57-97.84,212.19-100.42,217.48,1.37-3.56,29.78-77.58,53.36-179.33,24.17-104.3,91.67-176.53,91.67-176.53C714.36,161.21,719.33,183.55,743.68,200.08Z" transform="translate(-16.97 -29.5)"/><path class="cls-38" d="M428,678.34S487.07,494,495.6,403.73s48-175.53,48-175.53S453.66,402.8,428,498s-46,180.31-46,180.31Z" transform="translate(-16.97 -29.5)"/><path class="cls-40" d="M361.92,745.44S324.35,773,274,788.88c-23.64,7.46-40.93,10.25-52.59,11.13,15.76-15.39,32.68-31.76,50.32-48.6C311.73,743.32,362.15,735.13,361.92,745.44Z" transform="translate(-16.97 -29.5)"/><path class="cls-41" d="M1172.11,306.16a16.78,16.78,0,0,1-10.42,15.52L415.09,627.6,410,596.34l-6-36.78,745.58-269.19a16.79,16.79,0,0,1,21.9,11.47A16.5,16.5,0,0,1,1172.11,306.16Z" transform="translate(-16.97 -29.5)"/><path class="cls-42" d="M1172.11,306.16a16.78,16.78,0,0,1-10.42,15.52L415.09,627.6,410,596.34c6.63-3.93,112.88-66.13,242.93-85.77,134.32-20.27,283.37-126,362.37-152.67,71.72-24.22,131-26.46,151.72-63.75a16.81,16.81,0,0,1,5.07,12Z" transform="translate(-16.97 -29.5)"/><path class="cls-43" d="M428,641.69c-7.48,36.24-33.79,53.85-61.67,77.84-6.94,6-14.21,12-21.92,17.74-22.73,17.11-49.23,32.6-82,41.34l0,0a224.28,224.28,0,0,1-54.68,7.4A308.87,308.87,0,0,1,176,784.92a281.73,281.73,0,0,1-73.82-16.22C45.35,747.72,17,715.23,17,715.23c44.74,2,77.42-9.63,100.47-24.2h0c28.5-18,42.31-40.53,46-47.31.71-1.3,1-2,1-2-25,3.87-70,23.44-71.39,24h0c18.14-30.8,39.79-54.34,62.87-72.29,30.67-23.87,63.85-37.83,94.52-45.82h0c61.43-16,112.88-8.07,114.51-7.83l0,0S445.62,556.37,428,641.69Z" transform="translate(-16.97 -29.5)"/><polygon class="cls-44" points="309.08 688.41 331.33 629.34 245.49 642.5 217.5 701.12 309.08 688.41"/><path class="cls-45" d="M348.3,717.91l-3.87,19.36c-22.73,17.11-49.23,32.6-82,41.34l63.6-60.7Z" transform="translate(-16.97 -29.5)"/><path class="cls-46" d="M422.09,748s19.29-10.39,22.05,10.6C444.14,758.61,439.05,744.62,422.09,748Z" transform="translate(-16.97 -29.5)"/><path class="cls-46" d="M526.18,736.28,497.9,772.34a0,0,0,0,0,0,0L487.19,786c.24-.8,9-27.87,7.9-39-1.14-11.31-12.45-15.84-19.23-3.4s-5.08,27.71-5.08,27.71l-13.57-35.06-63.88-3.39-1-.49-1.48-.74-2.08-1-50.6-25.07-7.58-3.75s-9.6-11.31,13.58-52.57c22.81-40.62,64.26-77.41,65.55-78.56l0,0s4.51,4.51-1.14,31.65c-5.48,26.28-7.77,31.88-7.9,32.21L460,588.74l.25.36c1.67,2.63,10.84,20-9.8,57.2l-.07.1,44.67-23.75s10.73,17.53,0,35.05c0,0,28.26,13,31.09,23.75S526.18,736.28,526.18,736.28Z" transform="translate(-16.97 -29.5)"/><path class="cls-47" d="M457.21,736.28l-63.88-3.39-1-.49-1.48-.74-2.08-1-50.6-25.07c-4-7.7-5.07-16.7-1.92-27.23,17.25-57.6,68.55-102.86,70.15-104.25-.49.54-6.62,7.36-23.58,33.31-17.74,27.15-26.22,93.29-8,104.65S457.21,736.28,457.21,736.28Z" transform="translate(-16.97 -29.5)"/><path class="cls-46" d="M388.17,757.24s-7.85,3.6-8.06,11.87c0,0-1.48-8.06,2.33-11.87S388.17,754.91,388.17,757.24Z" transform="translate(-16.97 -29.5)"/><path class="cls-39" d="M509.22,821.08s-8.59-37.88,21.71-91.58,88-136.11,174.46-191.86S943,407.51,1154.11,351.56c0,0-307.5,108.46-455.85,252.67s-164,221.53-164,221.53Z" transform="translate(-16.97 -29.5)"/><polygon class="cls-37" points="327.2 679.03 319.26 714.13 357.78 742.86 349.38 690.03 327.2 679.03"/><ellipse class="cls-46" cx="373.32" cy="755.41" rx="3.82" ry="7.53"/><ellipse class="cls-46" cx="408.16" cy="747.88" rx="5.09" ry="10.05"/><path class="cls-26" d="M197.16,932.45l-1,3.66-3.28,12.46v11.66c0,7.83-8.48,35.81-11,40s-38.59,16.54-38.59,16.54c-5.93-5.93-2.12-13.57-2.12-13.57-6.78,3-13.56-1.26-13.56-1.26l-.18,0a1.66,1.66,0,0,0-.26.05c-1.07.22-3.91.81-7.69,1.72h-.07c-1.87.46-4,1-6.22,1.56-8.06,2.12-13.14-4.66-13.14-4.66s-2.54,2.12-14,0-16.54-31.8-18.23-39.43,49.61-57.67,49.61-57.67h0c11.57-3.71,21.49-5.52,30-5.91l.95,0c24.2-.84,36.55,9.9,42.74,19.66a46.52,46.52,0,0,1,2.88,5.32A38.54,38.54,0,0,1,197.16,932.45Z" transform="translate(-16.97 -29.5)"/><polygon class="cls-48" points="83.1 971.22 69.11 940.55 78.44 972.15 83.1 971.22"/><path class="cls-49" d="M127.63,1002s-15.83-28-16.4-35.33c0,0,1.13,25.15,8.2,37.16Z" transform="translate(-16.97 -29.5)"/><path class="cls-50" d="M141.19,1003.26l8.77-4.1s-13-30.53-12.44-37.6c0,0,0,20.07,3.39,28.83S141.19,1003.26,141.19,1003.26Z" transform="translate(-16.97 -29.5)"/><path class="cls-51" d="M169.74,992.09l-28.55,11.17s24.31-10.89,24.88-15.69S163,955.06,163,955.06s8.76,28.83,8.76,32.79S169.74,992.09,169.74,992.09Z" transform="translate(-16.97 -29.5)"/><path class="cls-52" d="M197.16,932.45l-1,3.66-3.28,12.46s-5.37-10.18-8.2-12.45c-2.68-2.14,4.83-17.55,5.6-19.09a.36.36,0,0,1,.05-.13s.3.14.78.43a46.52,46.52,0,0,1,2.88,5.32A38.54,38.54,0,0,1,197.16,932.45Z" transform="translate(-16.97 -29.5)"/><path class="cls-53" d="M405.46,780.78l-2.54,31h13.56S403.13,810.25,405.46,780.78Z" transform="translate(-16.97 -29.5)"/><path class="cls-46" d="M428.2,829.84l-.37-3.89c.69-.06,16.94-1.86,21.41-19.93L453,807C447.88,827.78,428.39,829.82,428.2,829.84Z" transform="translate(-16.97 -29.5)"/><path class="cls-37" d="M538.29,810.77s21.81-104.45,65.34-151.94c0,0-72.25,74.42-91.81,151.69Z" transform="translate(-16.97 -29.5)"/><path class="cls-54" d="M511.82,810.52a25.73,25.73,0,0,0-1.06,3s0,.06,0,.08c-2.78,9.32-.45,18.26,5.77,20.84,6.89,2.87,16-3.2,20.27-13.56a26.85,26.85,0,0,0,2.08-13.25c-.57-5.06-2.92-9.07-6.77-10.67C525.19,794.09,516.12,800.16,511.82,810.52Z" transform="translate(-16.97 -29.5)"/><path class="cls-55" d="M511.82,810.52a25.73,25.73,0,0,0-1.06,3s0,.06,0,.08c-2.12,14,7.34,21.3,18.76,13.12,5.82-4.15,8.31-12.2,9.36-19.09-.57-5.06-2.92-9.07-6.77-10.67C525.19,794.09,516.12,800.16,511.82,810.52Z" transform="translate(-16.97 -29.5)"/><path class="cls-56" d="M528.14,805.27a5.9,5.9,0,0,0-.23.67s0,0,0,0c-.62,2.08-.1,4.07,1.29,4.65s3.56-.72,4.52-3a6,6,0,0,0,.47-3,2.77,2.77,0,0,0-1.51-2.38C531.13,801.6,529.1,803,528.14,805.27Z" transform="translate(-16.97 -29.5)"/><path class="cls-56" d="M522.57,808.44a2.79,2.79,0,0,0-.12.34h0c-.31,1-.05,2,.64,2.32s1.78-.35,2.26-1.51a2.94,2.94,0,0,0,.23-1.48,1.37,1.37,0,0,0-.75-1.19C524.06,806.61,523.05,807.29,522.57,808.44Z" transform="translate(-16.97 -29.5)"/><path class="cls-37" d="M1440.59,201.86a32.2,32.2,0,0,1,3.4.86Z" transform="translate(-16.97 -29.5)"/><path class="cls-57" d="M526.18,736.28,497.9,772.34c.69-1.07,22.65-35.23,24.61-45s.27-43.87-4.81-49-28.84-17.81-28.84-17.81,7.54-14.13,6.75-24.59-.52-13.29-.52-13.29,10.73,17.53,0,35.05c0,0,28.26,13,31.09,23.75S526.18,736.28,526.18,736.28Z" transform="translate(-16.97 -29.5)"/><path class="cls-58" d="M450.49,646.3l-.07.1-7.34,4.8c23.18-28.26,17-62.46,17-62.46l.25.36C462,591.73,471.13,609.06,450.49,646.3Z" transform="translate(-16.97 -29.5)"/><path class="cls-59" d="M388.75,730.62,330.57,701.8s-9.6-11.31,13.58-52.57c22.81-40.62,64.26-77.41,65.55-78.56C352.63,628.32,332.84,683.14,334,693.88,334.91,702.78,375,723.69,388.75,730.62Z" transform="translate(-16.97 -29.5)"/><path class="cls-60" d="M457.21,736.28s-83.67-12-98.08-31.94,17.8-79.71,17.8-79.71-20,58.21,18.41,70,42.22,18.59,48.8,25.38S462.87,731.75,457.21,736.28Z" transform="translate(-16.97 -29.5)"/><path class="cls-61" d="M382,722.15s-36.43-11.44-39.85-29.68,19.92-45.59,19.92-45.59-20.35,37.41-3,50.61S382,722.15,382,722.15Z" transform="translate(-16.97 -29.5)"/><path class="cls-62" d="M500.81,532.39s566.81-204.1,658.39-238.24c0,0,15.26.39-5.09,15.55S652.93,488.08,589.35,515.76,500.81,532.39,500.81,532.39Z" transform="translate(-16.97 -29.5)"/><path class="cls-63" d="M102.13,768.7C45.35,747.72,17,715.23,17,715.23l66.57,21Z" transform="translate(-16.97 -29.5)"/><path class="cls-64" d="M117.45,691,83.54,736.28,17,715.23c44.74,2,77.42-9.63,100.47-24.2Z" transform="translate(-16.97 -29.5)"/><polygon class="cls-65" points="100.48 661.53 158.99 681.91 66.57 706.78 100.48 661.53"/><path class="cls-66" d="M176,784.92a281.73,281.73,0,0,1-73.82-16.22L83.54,736.28Z" transform="translate(-16.97 -29.5)"/><polygon class="cls-67" points="158.99 681.91 217.5 701.12 158.98 755.43 66.57 706.78 158.99 681.91"/><polygon class="cls-68" points="158.99 681.91 176.98 626.3 100.48 661.53 158.99 681.91"/><path class="cls-69" d="M202.25,615.3,194,655.8,117.45,691c34-21.49,47.06-49.34,47.06-49.34Z" transform="translate(-16.97 -29.5)"/><path class="cls-70" d="M163.46,643.72c.71-1.3,1-2,1-2-25,3.87-70,23.44-71.39,24h0l56.6-41.12,52.57-9.33Z" transform="translate(-16.97 -29.5)"/><path class="cls-71" d="M156,593.46l-6.27,31.17-56.6,41.12C111.22,635,132.87,611.41,156,593.46Z" transform="translate(-16.97 -29.5)"/><polygon class="cls-72" points="138.98 563.96 206.78 544.57 185.28 585.8 132.71 595.13 138.98 563.96"/><polygon class="cls-73" points="185.28 585.8 253.12 574.73 173.69 632.36 185.28 585.8"/><polygon class="cls-74" points="173.69 632.36 245.49 642.5 158.99 681.91 173.69 632.36"/><path class="cls-75" d="M262.46,778.61l0,0a224.28,224.28,0,0,1-54.68,7.4A308.87,308.87,0,0,1,176,784.92l39.62-36.75Z" transform="translate(-16.97 -29.5)"/><path class="cls-76" d="M250.51,547.64l-26.76,26.43L156,593.46c30.67-23.87,63.85-37.83,94.52-45.82Z" transform="translate(-16.97 -29.5)"/><polygon class="cls-77" points="217.5 701.12 245.49 642.5 158.99 681.91 217.5 701.12"/><polygon class="cls-78" points="253.12 574.73 297.21 527.24 206.78 544.57 185.28 585.8 253.12 574.73"/><polygon class="cls-79" points="297.21 527.24 233.54 518.14 206.78 544.57 297.21 527.24"/><polygon class="cls-80" points="253.12 574.73 324.85 590.47 245.49 642.5 173.69 632.36 253.12 574.73"/><polygon class="cls-81" points="324.85 590.47 365.05 531.36 297.21 527.24 253.12 574.73 324.85 590.47"/><path class="cls-82" d="M365.06,539.83l-50.87,16.9-63.68-9.09c61.43-16,112.88-8.07,114.51-7.83Z" transform="translate(-16.97 -29.5)"/><polygon class="cls-83" points="245.47 749.13 309.08 688.41 217.5 701.12 198.6 718.67 245.47 749.13"/><g class="cls-84"><polygon class="cls-20" points="1389.67 395.65 1368.63 399.83 1350.36 397.06 1315.78 405.01 1289.26 399.83 1280.04 390.27 1300.08 384.38 1312.22 386.42 1334.33 384.38 1366.83 393.11 1389.67 395.65"/><polygon class="cls-21" points="1320.85 399.04 1350.36 397.06 1315.78 405.01 1289.26 399.83 1280.04 390.27 1296.55 396.39 1320.85 399.04"/><polygon class="cls-21" points="1389.67 395.65 1368.63 399.83 1350.36 397.06 1363.33 395.73 1389.67 395.65"/><polygon class="cls-22" points="1366.83 393.11 1350.36 394.69 1330.68 391.75 1351.61 389.02 1366.83 393.11"/></g><path class="cls-85" d="M476.25,773.66s4.41-28.16,9.78-28.22,2.53,13.17,2.53,13.17L486,753.3s1.7,18.09-1.13,21.76a17.77,17.77,0,0,0-3.38,7.35S475.31,778.89,476.25,773.66Z" transform="translate(-16.97 -29.5)"/><path class="cls-86" d="M1060.61,135.16" transform="translate(-16.97 -29.5)"/><g class="cls-87"><polygon class="cls-20" points="1306.68 421.88 1198.42 443.39 1104.44 429.15 926.53 470.07 790.12 443.39 742.71 394.2 845.79 363.9 908.22 374.42 1021.97 363.9 1189.16 408.85 1306.68 421.88"/><polygon class="cls-21" points="952.64 439.36 1104.44 429.15 926.53 470.07 790.12 443.39 742.71 394.2 827.63 425.7 952.64 439.36"/><polygon class="cls-21" points="1306.68 421.88 1198.42 443.39 1104.44 429.15 1171.16 422.3 1306.68 421.88"/><polygon class="cls-22" points="1189.16 408.85 1104.44 416.99 1003.23 401.86 1110.85 387.8 1189.16 408.85"/></g></svg>