<?xml version="1.0" encoding="utf-8"?>
<!-- Generator: Adobe Illustrator 23.1.0, SVG Export Plug-In . SVG Version: 6.00 Build 0)  -->
<svg version="1.1" id="Layer_1" xmlns="http://www.w3.org/2000/svg" xmlns:xlink="http://www.w3.org/1999/xlink" x="0px" y="0px"
	 viewBox="0 0 500 500" style="enable-background:new 0 0 500 500;" xml:space="preserve">
<style type="text/css">
	.st0{opacity:0.28;fill:#6981C0;}
	.st1{fill:#1B3B6C;}
	.st2{fill:url(#SVGID_1_);}
	.st3{fill:url(#SVGID_2_);}
	.st4{fill:url(#SVGID_3_);}
	.st5{fill:#CD7B29;}
	.st6{fill:#6981C0;}
	.st7{opacity:0.42;fill:url(#SVGID_4_);}
	.st8{fill:url(#SVGID_5_);}
	.st9{fill:#FFFFFF;}
	.st10{fill:url(#SVGID_6_);}
	.st11{fill:url(#SVGID_7_);}
	.st12{fill:url(#SVGID_8_);}
	.st13{fill:url(#SVGID_9_);}
	.st14{fill:#A2DBE1;}
	.st15{fill:url(#SVGID_10_);}
	.st16{fill:#1D224C;}
	.st17{fill:#8196CC;}
	.st18{fill:#214184;}
</style>
<g>
	<ellipse class="st0" cx="246.9" cy="390.2" rx="122.1" ry="16.5"/>
	<path class="st1" d="M149.8,391.7h90.8l-9.4-12.4l-21.9-7.6l-10.4-11.6L168.4,337c0,0-10.4,0.5-10.4,3.5c0,3-1.3,22.4-0.9,23.6
		s-18.7,12.9-18.7,12.9l-7.8,14.8H149.8z"/>
	<linearGradient id="SVGID_1_" gradientUnits="userSpaceOnUse" x1="246.8842" y1="235.1236" x2="246.8842" y2="385.2231">
		<stop  offset="0" style="stop-color:#F78F20"/>
		<stop  offset="1" style="stop-color:#FFC713"/>
	</linearGradient>
	<path class="st2" d="M308.5,250.8l21,81.4c2.9,11.2-3.8,22.6-15,25.5l-103.7,26.8c-11.2,2.9-22.6-3.8-25.5-15l-21-81.4
		c-2.9-11.2,3.8-22.6,15-25.5L283,235.8C294.2,232.9,305.6,239.6,308.5,250.8z"/>
	<linearGradient id="SVGID_2_" gradientUnits="userSpaceOnUse" x1="240.584" y1="323.35" x2="240.584" y2="235.1236">
		<stop  offset="0" style="stop-color:#F78F20"/>
		<stop  offset="1" style="stop-color:#FFC713"/>
	</linearGradient>
	<path class="st3" d="M308.5,250.8l9.1,35.2l-144.2,37.3l-9.1-35.2c-2.9-11.2,3.8-22.6,15-25.5L283,235.8
		C294.2,232.9,305.6,239.6,308.5,250.8z"/>
	<linearGradient id="SVGID_3_" gradientUnits="userSpaceOnUse" x1="244.3712" y1="277.5457" x2="244.3712" y2="323.35">
		<stop  offset="5.949491e-02" style="stop-color:#5D3A7E"/>
		<stop  offset="1" style="stop-color:#EE74A7"/>
	</linearGradient>
	<polygon class="st4" points="315.4,277.5 317.6,286.1 173.3,323.4 171.1,314.8 	"/>
	<g>
		
			<rect x="175.3" y="320.4" transform="matrix(0.9682 -0.2502 0.2502 0.9682 -72.4871 72.7368)" class="st5" width="149" height="2"/>
		
			<rect x="181.5" y="344.4" transform="matrix(0.9682 -0.2502 0.2502 0.9682 -78.289 75.0502)" class="st5" width="149" height="2"/>
		
			<rect x="191" y="362.7" transform="matrix(0.9682 -0.2502 0.2502 0.9682 -82.7246 76.8179)" class="st5" width="139.5" height="2"/>
		<rect x="163.8" y="276" transform="matrix(0.9682 -0.2502 0.2502 0.9682 -61.7233 68.4448)" class="st5" width="149" height="2"/>
		
			<rect x="164.4" y="253.8" transform="matrix(0.9682 -0.2501 0.2501 0.9682 -56.3229 66.4335)" class="st5" width="137.7" height="2"/>
	</g>
	<polygon class="st6" points="278.3,387.9 340.9,393.1 374.8,373.3 369.9,357.3 361.4,353.1 361.4,336.8 333.7,311.7 317.6,323.7 
		312.9,342.6 297.6,347.2 	"/>
	
		<linearGradient id="SVGID_4_" gradientUnits="userSpaceOnUse" x1="355.7798" y1="11.4487" x2="411.609" y2="-111.702" gradientTransform="matrix(0.9108 -0.4129 0.4129 0.9108 -81.837 373.9131)">
		<stop  offset="3.794483e-02" style="stop-color:#51B8DC"/>
		<stop  offset="1" style="stop-color:#FFFFFF"/>
	</linearGradient>
	<path class="st7" d="M228.6,108.9c0,0-25.2,10.8-20.1,39.4s17.8,34.6,7.4,51.1c-10.4,16.5-2.7,29.5,6.5,35.7
		c9.2,6.2,37.1,0.3,36.8-22s5.9-38.5,17.2-48.2s13.8-29.5,0.9-50.1C264.4,94.1,236.2,104.1,228.6,108.9z"/>
	<g>
		
			<linearGradient id="SVGID_5_" gradientUnits="userSpaceOnUse" x1="343.9955" y1="-48.2361" x2="410.0772" y2="-48.2361" gradientTransform="matrix(0.9108 -0.4129 0.4129 0.9108 -81.837 373.9131)">
			<stop  offset="0" style="stop-color:#F78F20"/>
			<stop  offset="1" style="stop-color:#FFC713"/>
		</linearGradient>
		<path class="st8" d="M232.4,216.2l0,0.2l-9.1-2.7l17.6-59.5c-4.5-3.4-6.5-9.2-4.9-14.7c1.7-5.7,7-9.7,13-9.7
			c1.3,0,2.6,0.2,3.9,0.6c7.2,2.1,11.3,9.7,9.2,16.9c-1.6,5.4-6.5,9.3-12.1,9.7l-10.6,36l6.7,2l-3,10.1l-6.7-2l-1,3.2l6.7,2l-3,10.1
			L232.4,216.2z M248.9,138.4c-2.1,0-4.1,1.4-4.7,3.5c-0.4,1.3-0.2,2.6,0.4,3.7s1.7,2,2.9,2.3c0.5,0.1,0.9,0.2,1.4,0.2
			c2.1,0,4.1-1.4,4.7-3.5c0.8-2.6-0.7-5.3-3.3-6.1C249.9,138.4,249.4,138.4,248.9,138.4z"/>
		<path class="st9" d="M248.9,131.2c1.1,0,2.3,0.2,3.4,0.5c6.4,1.9,10,8.6,8.2,15c-1.6,5.3-6.4,8.6-11.6,8.6c-0.1,0-0.1,0-0.2,0
			l-11.4,38.5l6.7,2l-2.1,7.2l-6.7-2l-1.8,6.1l6.7,2l-2.1,7.2l-6.7-2l0,0.2l-6.2-1.8l17.5-59.1c-4.5-2.8-6.7-8.3-5.2-13.6
			C238.9,134.6,243.7,131.2,248.9,131.2 M248.9,149.6c2.8,0,5.3-1.8,6.1-4.6c1-3.4-0.9-6.9-4.3-7.9c-0.6-0.2-1.2-0.3-1.8-0.3
			c-2.8,0-5.3,1.8-6.1,4.6c-1,3.4,0.9,6.9,4.3,7.9C247.7,149.6,248.4,149.6,248.9,149.6 M248.9,128.2
			C248.9,128.2,248.9,128.2,248.9,128.2c-6.6,0-12.6,4.4-14.5,10.8c-1.7,5.7,0.2,11.8,4.6,15.6l-16.9,57.1l-0.9,2.9l2.9,0.9l6.2,1.8
			l2.9,0.9l0-0.2l3.8,1.1l2.9,0.9l0.9-2.9l2.1-7.2l0.9-2.9l-2.9-0.9l-3.8-1.1l0.1-0.4l3.8,1.1l2.9,0.9l0.9-2.9l2.1-7.2l0.9-2.9
			l-2.9-0.9l-3.8-1.1l9.9-33.6c5.8-0.8,10.7-5,12.3-10.6c2.4-8-2.2-16.4-10.2-18.7C251.8,128.4,250.4,128.2,248.9,128.2L248.9,128.2
			L248.9,128.2z M248.9,146.6c-0.3,0-0.6,0-1-0.1c-1.8-0.5-2.8-2.4-2.3-4.2c0.4-1.4,1.8-2.4,3.2-2.4c0.3,0,0.6,0,1,0.1
			c0.9,0.3,1.6,0.8,2,1.6c0.4,0.8,0.5,1.7,0.3,2.6C251.8,145.6,250.4,146.6,248.9,146.6L248.9,146.6z"/>
	</g>
	<linearGradient id="SVGID_6_" gradientUnits="userSpaceOnUse" x1="307.0175" y1="187.2571" x2="307.0175" y2="212.343">
		<stop  offset="5.949491e-02" style="stop-color:#5D3A7E"/>
		<stop  offset="1" style="stop-color:#EE74A7"/>
	</linearGradient>
	<circle class="st10" cx="307" cy="199.8" r="12.5"/>
	<linearGradient id="SVGID_7_" gradientUnits="userSpaceOnUse" x1="183.2239" y1="177.9113" x2="199.3791" y2="177.9113">
		<stop  offset="0" style="stop-color:#F78F20"/>
		<stop  offset="1" style="stop-color:#FFC713"/>
	</linearGradient>
	<circle class="st11" cx="191.3" cy="177.9" r="8.1"/>
	<linearGradient id="SVGID_8_" gradientUnits="userSpaceOnUse" x1="133.2682" y1="268.2493" x2="133.2682" y2="279.4594">
		<stop  offset="5.949491e-02" style="stop-color:#5D3A7E"/>
		<stop  offset="1" style="stop-color:#EE74A7"/>
	</linearGradient>
	<circle class="st12" cx="133.3" cy="273.9" r="5.6"/>
	<linearGradient id="SVGID_9_" gradientUnits="userSpaceOnUse" x1="357.9579" y1="315.7784" x2="369.168" y2="315.7784">
		<stop  offset="0" style="stop-color:#F78F20"/>
		<stop  offset="1" style="stop-color:#FFC713"/>
	</linearGradient>
	<circle class="st13" cx="363.6" cy="315.8" r="5.6"/>
	<circle class="st9" cx="191.3" cy="242.3" r="5.6"/>
	<polygon class="st14" points="124.8,205.3 145.6,236.2 169.2,236.7 155.4,219.3 	"/>
	<polygon class="st14" points="347,234.6 327,248.8 327.1,264.3 338.3,254.9 	"/>
	<linearGradient id="SVGID_10_" gradientUnits="userSpaceOnUse" x1="250.8264" y1="283.9554" x2="250.8264" y2="338.2124">
		<stop  offset="5.949491e-02" style="stop-color:#5D3A7E"/>
		<stop  offset="1" style="stop-color:#EE74A7"/>
	</linearGradient>
	<path class="st15" d="M261.6,336.2l-6.6,1.7c-5.1,1.3-10.4-1.8-11.7-6.9l-10.5-40.5l25.2-6.5l10.5,40.5
		C269.9,329.6,266.8,334.9,261.6,336.2z"/>
	<path class="st16" d="M254.6,302.6c-0.7-2.7-3.5-4.3-6.2-3.6c-2.7,0.7-4.3,3.5-3.6,6.2c0.4,1.6,1.6,2.9,3.1,3.4l3.8,14.6
		c0.4,1.6,2,2.5,3.6,2.1s2.5-2,2.1-3.6l-3.8-14.6C254.6,305.9,255,304.2,254.6,302.6z"/>
	<polygon class="st17" points="278.3,387.9 302.1,365 297.6,347.2 	"/>
	<polygon class="st1" points="302.1,365 317.6,365 312.9,342.6 297.6,347.2 	"/>
	<polygon class="st18" points="317.6,365 324.4,342.6 317.6,323.7 312.9,342.6 	"/>
	<polygon class="st17" points="324.4,342.6 337,332.6 333.7,311.7 317.6,323.7 	"/>
	<polygon class="st1" points="312.9,390.8 334.8,363.7 348.7,341 361.4,336.8 361.4,353.1 369.9,357.3 374.8,373.3 340.9,393.1 	"/>
	<polygon class="st17" points="335.2,321.4 361.4,336.8 333.7,311.7 	"/>
	<circle class="st9" cx="175.2" cy="347.6" r="16.1"/>
</g>
</svg>
